<svg width="233" height="125" viewBox="0 0 233 125" fill="none" xmlns="http://www.w3.org/2000/svg">
<path d="M28.557 15.21C27.843 15.21 27.199 15.0887 26.625 14.846C26.0557 14.6033 25.5843 14.258 25.211 13.81C24.8423 13.3573 24.602 12.823 24.49 12.207L25.778 12.004C25.9413 12.6387 26.2797 13.1357 26.793 13.495C27.311 13.8497 27.92 14.027 28.62 14.027C29.0727 14.027 29.481 13.957 29.845 13.817C30.2137 13.6723 30.5053 13.467 30.72 13.201C30.9347 12.935 31.042 12.62 31.042 12.256C31.042 12.032 31.0023 11.8407 30.923 11.682C30.8483 11.5187 30.7433 11.381 30.608 11.269C30.4773 11.1523 30.328 11.0543 30.16 10.975C29.992 10.8957 29.817 10.8303 29.635 10.779L27.066 10.016C26.786 9.932 26.5153 9.827 26.254 9.701C25.9927 9.57033 25.7593 9.40933 25.554 9.218C25.3487 9.022 25.1853 8.78867 25.064 8.518C24.9427 8.24267 24.882 7.91833 24.882 7.545C24.882 6.94767 25.036 6.439 25.344 6.019C25.6567 5.59433 26.079 5.27 26.611 5.046C27.143 4.822 27.7427 4.71233 28.41 4.717C29.0867 4.72167 29.691 4.843 30.223 5.081C30.7597 5.31433 31.203 5.65033 31.553 6.089C31.9077 6.52767 32.1457 7.05267 32.267 7.664L30.944 7.895C30.874 7.48433 30.7177 7.132 30.475 6.838C30.237 6.53933 29.9383 6.31067 29.579 6.152C29.2197 5.98867 28.8253 5.90467 28.396 5.9C27.9853 5.89533 27.6143 5.96067 27.283 6.096C26.9517 6.23133 26.688 6.42033 26.492 6.663C26.296 6.901 26.198 7.17633 26.198 7.489C26.198 7.797 26.2867 8.04667 26.464 8.238C26.6413 8.42467 26.8583 8.574 27.115 8.686C27.3763 8.79333 27.6307 8.882 27.878 8.952L29.796 9.505C30.0153 9.56567 30.2673 9.64967 30.552 9.757C30.8413 9.86433 31.1213 10.016 31.392 10.212C31.6627 10.4033 31.8867 10.66 32.064 10.982C32.2413 11.2993 32.33 11.7007 32.33 12.186C32.33 12.6713 32.232 13.103 32.036 13.481C31.8447 13.859 31.5763 14.1763 31.231 14.433C30.8857 14.685 30.4843 14.8763 30.027 15.007C29.5697 15.1423 29.0797 15.21 28.557 15.21ZM37.0744 15.21C36.3324 15.21 35.6837 15.0467 35.1284 14.72C34.5777 14.3887 34.1484 13.929 33.8404 13.341C33.5324 12.7483 33.3784 12.0577 33.3784 11.269C33.3784 10.443 33.53 9.729 33.8334 9.127C34.1367 8.52033 34.559 8.05367 35.1004 7.727C35.6464 7.39567 36.2857 7.23 37.0184 7.23C37.779 7.23 38.4254 7.405 38.9574 7.755C39.494 8.105 39.8954 8.60433 40.1614 9.253C40.432 9.90167 40.5487 10.674 40.5114 11.57H39.2514V11.122C39.2374 10.1933 39.0484 9.50033 38.6844 9.043C38.3204 8.581 37.779 8.35 37.0604 8.35C36.2904 8.35 35.7047 8.59733 35.3034 9.092C34.902 9.58667 34.7014 10.296 34.7014 11.22C34.7014 12.1113 34.902 12.802 35.3034 13.292C35.7047 13.782 36.2764 14.027 37.0184 14.027C37.5177 14.027 37.9517 13.9127 38.3204 13.684C38.689 13.4553 38.9784 13.1263 39.1884 12.697L40.3854 13.11C40.0914 13.7773 39.648 14.2953 39.0554 14.664C38.4674 15.028 37.807 15.21 37.0744 15.21ZM34.2814 11.57V10.569H39.8674V11.57H34.2814ZM42.2098 15V4.71H43.4558V15H42.2098ZM48.8322 15.21C48.0902 15.21 47.4415 15.0467 46.8862 14.72C46.3355 14.3887 45.9062 13.929 45.5982 13.341C45.2902 12.7483 45.1362 12.0577 45.1362 11.269C45.1362 10.443 45.2878 9.729 45.5912 9.127C45.8945 8.52033 46.3168 8.05367 46.8582 7.727C47.4042 7.39567 48.0435 7.23 48.7762 7.23C49.5368 7.23 50.1832 7.405 50.7152 7.755C51.2518 8.105 51.6532 8.60433 51.9192 9.253C52.1898 9.90167 52.3065 10.674 52.2692 11.57H51.0092V11.122C50.9952 10.1933 50.8062 9.50033 50.4422 9.043C50.0782 8.581 49.5368 8.35 48.8182 8.35C48.0482 8.35 47.4625 8.59733 47.0612 9.092C46.6598 9.58667 46.4592 10.296 46.4592 11.22C46.4592 12.1113 46.6598 12.802 47.0612 13.292C47.4625 13.782 48.0342 14.027 48.7762 14.027C49.2755 14.027 49.7095 13.9127 50.0782 13.684C50.4468 13.4553 50.7362 13.1263 50.9462 12.697L52.1432 13.11C51.8492 13.7773 51.4058 14.2953 50.8132 14.664C50.2252 15.028 49.5648 15.21 48.8322 15.21ZM46.0392 11.57V10.569H51.6252V11.57H46.0392ZM57.0127 15.21C56.2473 15.21 55.5963 15.0397 55.0597 14.699C54.5277 14.3537 54.1217 13.88 53.8417 13.278C53.5617 12.676 53.417 11.99 53.4077 11.22C53.417 10.4313 53.564 9.73833 53.8487 9.141C54.138 8.539 54.551 8.07 55.0877 7.734C55.6243 7.398 56.2707 7.23 57.0267 7.23C57.8247 7.23 58.5107 7.426 59.0847 7.818C59.6633 8.21 60.0507 8.74667 60.2467 9.428L59.0147 9.799C58.856 9.36033 58.597 9.01967 58.2377 8.777C57.883 8.53433 57.4747 8.413 57.0127 8.413C56.4947 8.413 56.0677 8.53433 55.7317 8.777C55.3957 9.015 55.146 9.34633 54.9827 9.771C54.8193 10.191 54.7353 10.674 54.7307 11.22C54.74 12.06 54.9337 12.739 55.3117 13.257C55.6943 13.7703 56.2613 14.027 57.0127 14.027C57.5073 14.027 57.918 13.915 58.2447 13.691C58.5713 13.4623 58.8187 13.1333 58.9867 12.704L60.2467 13.033C59.9853 13.7377 59.577 14.2767 59.0217 14.65C58.4663 15.0233 57.7967 15.21 57.0127 15.21ZM65.8963 15C65.4483 15.0887 65.005 15.1237 64.5663 15.105C64.1323 15.091 63.745 15.0047 63.4043 14.846C63.0636 14.6827 62.8046 14.4307 62.6273 14.09C62.478 13.7913 62.3963 13.4903 62.3823 13.187C62.373 12.879 62.3683 12.5313 62.3683 12.144V5.34H63.6143V12.088C63.6143 12.396 63.6166 12.6597 63.6213 12.879C63.6306 13.0983 63.6796 13.2873 63.7683 13.446C63.9363 13.7447 64.2023 13.9197 64.5663 13.971C64.935 14.0223 65.3783 14.0083 65.8963 13.929V15ZM60.8353 8.469V7.44H65.8963V8.469H60.8353ZM71.2839 18.36L72.7469 14.384L72.7679 15.56L69.4639 7.44H70.7729L73.3629 13.971H72.9149L75.3439 7.44H76.6109L72.4949 18.36H71.2839ZM80.7137 15.21C79.9623 15.21 79.3137 15.0397 78.7677 14.699C78.2263 14.3583 77.8087 13.887 77.5147 13.285C77.2207 12.683 77.0737 11.9923 77.0737 11.213C77.0737 10.4197 77.223 9.72433 77.5217 9.127C77.8203 8.52967 78.2427 8.06533 78.7887 7.734C79.3347 7.398 79.9763 7.23 80.7137 7.23C81.4697 7.23 82.1207 7.40033 82.6667 7.741C83.2127 8.077 83.6303 8.546 83.9197 9.148C84.2137 9.74533 84.3607 10.4337 84.3607 11.213C84.3607 12.0017 84.2137 12.697 83.9197 13.299C83.6257 13.8963 83.2057 14.3653 82.6597 14.706C82.1137 15.042 81.465 15.21 80.7137 15.21ZM80.7137 14.027C81.4977 14.027 82.081 13.7657 82.4637 13.243C82.8463 12.7203 83.0377 12.0437 83.0377 11.213C83.0377 10.359 82.844 9.68 82.4567 9.176C82.0693 8.66733 81.4883 8.413 80.7137 8.413C80.1863 8.413 79.7523 8.532 79.4117 8.77C79.071 9.008 78.8167 9.337 78.6487 9.757C78.4807 10.177 78.3967 10.6623 78.3967 11.213C78.3967 12.0623 78.5927 12.7437 78.9847 13.257C79.3767 13.7703 79.953 14.027 80.7137 14.027ZM88.7719 15.196C88.2865 15.196 87.8689 15.119 87.5189 14.965C87.1735 14.811 86.8865 14.6057 86.6579 14.349C86.4292 14.0923 86.2495 13.8077 86.1189 13.495C85.9882 13.1823 85.8949 12.8627 85.8389 12.536C85.7875 12.2093 85.7619 11.9037 85.7619 11.619V7.44H87.0219V11.227C87.0219 11.5817 87.0545 11.9247 87.1199 12.256C87.1852 12.5873 87.2949 12.886 87.4489 13.152C87.6075 13.418 87.8175 13.628 88.0789 13.782C88.3449 13.936 88.6762 14.013 89.0729 14.013C89.3855 14.013 89.6702 13.9593 89.9269 13.852C90.1835 13.7447 90.4029 13.586 90.5849 13.376C90.7669 13.1613 90.9069 12.8907 91.0049 12.564C91.1029 12.2373 91.1519 11.857 91.1519 11.423L91.9709 11.675C91.9709 12.403 91.8379 13.0307 91.5719 13.558C91.3105 14.0853 90.9395 14.4913 90.4589 14.776C89.9829 15.056 89.4205 15.196 88.7719 15.196ZM91.2919 15V12.977H91.1519V7.44H92.4049V15H91.2919ZM94.3648 15V7.44H95.4778V9.267L95.2958 9.029C95.3844 8.79567 95.4988 8.581 95.6388 8.385C95.7834 8.189 95.9444 8.028 96.1218 7.902C96.3178 7.74333 96.5394 7.622 96.7868 7.538C97.0341 7.454 97.2861 7.405 97.5428 7.391C97.7994 7.37233 98.0398 7.38867 98.2638 7.44V8.609C98.0024 8.539 97.7154 8.52033 97.4028 8.553C97.0901 8.58567 96.8008 8.7 96.5348 8.896C96.2921 9.06867 96.1031 9.27867 95.9678 9.526C95.8371 9.77333 95.7461 10.0417 95.6948 10.331C95.6434 10.6157 95.6178 10.9073 95.6178 11.206V15H94.3648ZM104 15L101.69 7.433L102.929 7.44L104.616 12.97L106.317 7.44H107.416L109.11 12.97L110.804 7.44H112.036L109.726 15H108.69L106.863 9.253L105.036 15H104ZM115.025 15.21C114.461 15.21 113.987 15.1073 113.604 14.902C113.226 14.692 112.939 14.4167 112.743 14.076C112.552 13.7353 112.456 13.362 112.456 12.956C112.456 12.5593 112.531 12.2163 112.68 11.927C112.834 11.633 113.049 11.3903 113.324 11.199C113.6 11.003 113.929 10.849 114.311 10.737C114.671 10.639 115.072 10.555 115.515 10.485C115.963 10.4103 116.416 10.3427 116.873 10.282C117.331 10.2213 117.758 10.163 118.154 10.107L117.706 10.366C117.72 9.694 117.585 9.197 117.3 8.875C117.02 8.553 116.535 8.392 115.844 8.392C115.387 8.392 114.986 8.497 114.64 8.707C114.3 8.91233 114.059 9.24833 113.919 9.715L112.736 9.358C112.918 8.69533 113.271 8.175 113.793 7.797C114.316 7.419 115.004 7.23 115.858 7.23C116.544 7.23 117.132 7.35367 117.622 7.601C118.117 7.84367 118.472 8.21233 118.686 8.707C118.794 8.94033 118.861 9.19467 118.889 9.47C118.917 9.74067 118.931 10.0253 118.931 10.324V15H117.825V13.187L118.084 13.355C117.8 13.9663 117.401 14.4283 116.887 14.741C116.379 15.0537 115.758 15.21 115.025 15.21ZM115.214 14.167C115.662 14.167 116.05 14.0877 116.376 13.929C116.708 13.7657 116.974 13.5533 117.174 13.292C117.375 13.026 117.506 12.7367 117.566 12.424C117.636 12.1907 117.674 11.9317 117.678 11.647C117.688 11.3577 117.692 11.136 117.692 10.982L118.126 11.171C117.72 11.227 117.321 11.2807 116.929 11.332C116.537 11.3833 116.166 11.4393 115.816 11.5C115.466 11.556 115.151 11.6237 114.871 11.703C114.666 11.7683 114.472 11.8523 114.29 11.955C114.113 12.0577 113.968 12.1907 113.856 12.354C113.749 12.5127 113.695 12.711 113.695 12.949C113.695 13.1543 113.747 13.3503 113.849 13.537C113.957 13.7237 114.12 13.8753 114.339 13.992C114.563 14.1087 114.855 14.167 115.214 14.167ZM120.891 15V4.71H122.137V15H120.891ZM124.378 15V4.71H125.624V15H124.378ZM131 15.21C130.258 15.21 129.609 15.0467 129.054 14.72C128.503 14.3887 128.074 13.929 127.766 13.341C127.458 12.7483 127.304 12.0577 127.304 11.269C127.304 10.443 127.456 9.729 127.759 9.127C128.062 8.52033 128.485 8.05367 129.026 7.727C129.572 7.39567 130.211 7.23 130.944 7.23C131.705 7.23 132.351 7.405 132.883 7.755C133.42 8.105 133.821 8.60433 134.087 9.253C134.358 9.90167 134.474 10.674 134.437 11.57H133.177V11.122C133.163 10.1933 132.974 9.50033 132.61 9.043C132.246 8.581 131.705 8.35 130.986 8.35C130.216 8.35 129.63 8.59733 129.229 9.092C128.828 9.58667 128.627 10.296 128.627 11.22C128.627 12.1113 128.828 12.802 129.229 13.292C129.63 13.782 130.202 14.027 130.944 14.027C131.443 14.027 131.877 13.9127 132.246 13.684C132.615 13.4553 132.904 13.1263 133.114 12.697L134.311 13.11C134.017 13.7773 133.574 14.2953 132.981 14.664C132.393 15.028 131.733 15.21 131 15.21ZM128.207 11.57V10.569H133.793V11.57H128.207ZM140.217 15C139.769 15.0887 139.325 15.1237 138.887 15.105C138.453 15.091 138.065 15.0047 137.725 14.846C137.384 14.6827 137.125 14.4307 136.948 14.09C136.798 13.7913 136.717 13.4903 136.703 13.187C136.693 12.879 136.689 12.5313 136.689 12.144V5.34H137.935V12.088C137.935 12.396 137.937 12.6597 137.942 12.879C137.951 13.0983 138 13.2873 138.089 13.446C138.257 13.7447 138.523 13.9197 138.887 13.971C139.255 14.0223 139.699 14.0083 140.217 13.929V15ZM135.156 8.469V7.44H140.217V8.469H135.156ZM145.275 15V7.027C145.275 6.831 145.285 6.63267 145.303 6.432C145.322 6.22667 145.364 6.02833 145.429 5.837C145.495 5.641 145.602 5.46133 145.751 5.298C145.924 5.10667 146.113 4.97133 146.318 4.892C146.524 4.808 146.731 4.75667 146.941 4.738C147.156 4.71933 147.359 4.71 147.55 4.71H148.509V5.746H147.62C147.252 5.746 146.976 5.837 146.794 6.019C146.612 6.19633 146.521 6.467 146.521 6.831V15H145.275ZM143.994 8.469V7.44H148.509V8.469H143.994ZM149.626 15V7.44H150.739V9.267L150.557 9.029C150.646 8.79567 150.76 8.581 150.9 8.385C151.045 8.189 151.206 8.028 151.383 7.902C151.579 7.74333 151.801 7.622 152.048 7.538C152.296 7.454 152.548 7.405 152.804 7.391C153.061 7.37233 153.301 7.38867 153.525 7.44V8.609C153.264 8.539 152.977 8.52033 152.664 8.553C152.352 8.58567 152.062 8.7 151.796 8.896C151.554 9.06867 151.365 9.27867 151.229 9.526C151.099 9.77333 151.008 10.0417 150.956 10.331C150.905 10.6157 150.879 10.9073 150.879 11.206V15H149.626ZM157.932 15.21C157.181 15.21 156.532 15.0397 155.986 14.699C155.445 14.3583 155.027 13.887 154.733 13.285C154.439 12.683 154.292 11.9923 154.292 11.213C154.292 10.4197 154.442 9.72433 154.74 9.127C155.039 8.52967 155.461 8.06533 156.007 7.734C156.553 7.398 157.195 7.23 157.932 7.23C158.688 7.23 159.339 7.40033 159.885 7.741C160.431 8.077 160.849 8.546 161.138 9.148C161.432 9.74533 161.579 10.4337 161.579 11.213C161.579 12.0017 161.432 12.697 161.138 13.299C160.844 13.8963 160.424 14.3653 159.878 14.706C159.332 15.042 158.684 15.21 157.932 15.21ZM157.932 14.027C158.716 14.027 159.3 13.7657 159.682 13.243C160.065 12.7203 160.256 12.0437 160.256 11.213C160.256 10.359 160.063 9.68 159.675 9.176C159.288 8.66733 158.707 8.413 157.932 8.413C157.405 8.413 156.971 8.532 156.63 8.77C156.29 9.008 156.035 9.337 155.867 9.757C155.699 10.177 155.615 10.6623 155.615 11.213C155.615 12.0623 155.811 12.7437 156.203 13.257C156.595 13.7703 157.172 14.027 157.932 14.027ZM172.158 15L172.165 10.163C172.165 9.59833 172.013 9.15733 171.71 8.84C171.411 8.518 171.021 8.357 170.541 8.357C170.261 8.357 169.995 8.42233 169.743 8.553C169.491 8.679 169.285 8.87967 169.127 9.155C168.968 9.42567 168.889 9.77333 168.889 10.198L168.231 9.932C168.221 9.39533 168.331 8.92633 168.56 8.525C168.793 8.119 169.11 7.804 169.512 7.58C169.913 7.356 170.366 7.244 170.87 7.244C171.658 7.244 172.279 7.48433 172.732 7.965C173.184 8.441 173.411 9.08267 173.411 9.89L173.404 15H172.158ZM163.114 15V7.44H164.227V9.463H164.367V15H163.114ZM167.643 15L167.65 10.212C167.65 9.63333 167.5 9.18067 167.202 8.854C166.903 8.52267 166.506 8.357 166.012 8.357C165.522 8.357 165.125 8.525 164.822 8.861C164.518 9.197 164.367 9.64267 164.367 10.198L163.709 9.806C163.709 9.316 163.825 8.87733 164.059 8.49C164.292 8.10267 164.609 7.79933 165.011 7.58C165.412 7.356 165.867 7.244 166.376 7.244C166.884 7.244 167.328 7.35133 167.706 7.566C168.084 7.78067 168.375 8.08867 168.581 8.49C168.786 8.88667 168.889 9.36033 168.889 9.911L168.882 15H167.643ZM182.258 15C181.81 15.0887 181.366 15.1237 180.928 15.105C180.494 15.091 180.106 15.0047 179.766 14.846C179.425 14.6827 179.166 14.4307 178.989 14.09C178.839 13.7913 178.758 13.4903 178.744 13.187C178.734 12.879 178.73 12.5313 178.73 12.144V5.34H179.976V12.088C179.976 12.396 179.978 12.6597 179.983 12.879C179.992 13.0983 180.041 13.2873 180.13 13.446C180.298 13.7447 180.564 13.9197 180.928 13.971C181.296 14.0223 181.74 14.0083 182.258 13.929V15ZM177.197 8.469V7.44H182.258V8.469H177.197ZM189.176 15V11.213C189.176 10.8537 189.143 10.5083 189.078 10.177C189.017 9.84567 188.907 9.54933 188.749 9.288C188.595 9.022 188.385 8.812 188.119 8.658C187.857 8.504 187.526 8.427 187.125 8.427C186.812 8.427 186.527 8.48067 186.271 8.588C186.019 8.69067 185.802 8.84933 185.62 9.064C185.438 9.27867 185.295 9.54933 185.193 9.876C185.095 10.198 185.046 10.5783 185.046 11.017L184.227 10.765C184.227 10.0323 184.357 9.40467 184.619 8.882C184.885 8.35467 185.256 7.951 185.732 7.671C186.212 7.38633 186.777 7.244 187.426 7.244C187.916 7.244 188.333 7.321 188.679 7.475C189.024 7.629 189.311 7.83433 189.54 8.091C189.768 8.343 189.948 8.62767 190.079 8.945C190.209 9.25767 190.3 9.57733 190.352 9.904C190.408 10.226 190.436 10.5317 190.436 10.821V15H189.176ZM183.786 15V4.92H184.906V10.485H185.046V15H183.786ZM195.531 15.21C194.789 15.21 194.141 15.0467 193.585 14.72C193.035 14.3887 192.605 13.929 192.297 13.341C191.989 12.7483 191.835 12.0577 191.835 11.269C191.835 10.443 191.987 9.729 192.29 9.127C192.594 8.52033 193.016 8.05367 193.557 7.727C194.103 7.39567 194.743 7.23 195.475 7.23C196.236 7.23 196.882 7.405 197.414 7.755C197.951 8.105 198.352 8.60433 198.618 9.253C198.889 9.90167 199.006 10.674 198.968 11.57H197.708V11.122C197.694 10.1933 197.505 9.50033 197.141 9.043C196.777 8.581 196.236 8.35 195.517 8.35C194.747 8.35 194.162 8.59733 193.76 9.092C193.359 9.58667 193.158 10.296 193.158 11.22C193.158 12.1113 193.359 12.802 193.76 13.292C194.162 13.782 194.733 14.027 195.475 14.027C195.975 14.027 196.409 13.9127 196.777 13.684C197.146 13.4553 197.435 13.1263 197.645 12.697L198.842 13.11C198.548 13.7773 198.105 14.2953 197.512 14.664C196.924 15.028 196.264 15.21 195.531 15.21ZM192.738 11.57V10.569H198.324V11.57H192.738ZM203.47 15V4.71H204.716V15H203.47ZM206.956 6.103V4.815H208.202V6.103H206.956ZM206.956 15V7.44H208.202V15H206.956ZM213.158 15.203C212.258 15.203 211.518 15.007 210.939 14.615C210.365 14.2183 210.013 13.6653 209.882 12.956L211.156 12.753C211.259 13.1637 211.495 13.4903 211.863 13.733C212.232 13.971 212.689 14.09 213.235 14.09C213.753 14.09 214.159 13.9827 214.453 13.768C214.747 13.5533 214.894 13.2617 214.894 12.893C214.894 12.6783 214.845 12.5057 214.747 12.375C214.649 12.2397 214.446 12.1137 214.138 11.997C213.835 11.8803 213.375 11.7403 212.759 11.577C212.092 11.3997 211.567 11.2153 211.184 11.024C210.802 10.8327 210.529 10.611 210.365 10.359C210.202 10.107 210.12 9.80133 210.12 9.442C210.12 8.99867 210.242 8.61133 210.484 8.28C210.727 7.944 211.065 7.685 211.499 7.503C211.938 7.321 212.447 7.23 213.025 7.23C213.599 7.23 214.113 7.321 214.565 7.503C215.018 7.685 215.382 7.944 215.657 8.28C215.937 8.61133 216.103 8.99867 216.154 9.442L214.88 9.673C214.82 9.267 214.624 8.94733 214.292 8.714C213.966 8.48067 213.543 8.357 213.025 8.343C212.535 8.32433 212.136 8.41067 211.828 8.602C211.525 8.79333 211.373 9.05233 211.373 9.379C211.373 9.561 211.429 9.71733 211.541 9.848C211.658 9.97867 211.87 10.1023 212.178 10.219C212.491 10.3357 212.944 10.4687 213.536 10.618C214.204 10.786 214.729 10.9703 215.111 11.171C215.499 11.367 215.774 11.6003 215.937 11.871C216.101 12.137 216.182 12.466 216.182 12.858C216.182 13.586 215.914 14.16 215.377 14.58C214.841 14.9953 214.101 15.203 213.158 15.203ZM221.947 15C221.499 15.0887 221.056 15.1237 220.617 15.105C220.183 15.091 219.796 15.0047 219.455 14.846C219.114 14.6827 218.855 14.4307 218.678 14.09C218.529 13.7913 218.447 13.4903 218.433 13.187C218.424 12.879 218.419 12.5313 218.419 12.144V5.34H219.665V12.088C219.665 12.396 219.667 12.6597 219.672 12.879C219.681 13.0983 219.73 13.2873 219.819 13.446C219.987 13.7447 220.253 13.9197 220.617 13.971C220.986 14.0223 221.429 14.0083 221.947 13.929V15ZM216.886 8.469V7.44H221.947V8.469H216.886Z" fill="#44403C"/>
<path d="M24.28 67L27.654 56.92H29.39L32.764 67H31.469L28.312 57.648H28.704L25.575 67H24.28ZM25.904 64.641V63.472H31.14V64.641H25.904ZM37.4891 67.21C36.7798 67.21 36.1824 67.035 35.6971 66.685C35.2118 66.3303 34.8431 65.852 34.5911 65.25C34.3438 64.6433 34.2201 63.9643 34.2201 63.213C34.2201 62.4523 34.3438 61.771 34.5911 61.169C34.8431 60.567 35.2118 60.0933 35.6971 59.748C36.1871 59.4027 36.7868 59.23 37.4961 59.23C38.1961 59.23 38.7981 59.405 39.3021 59.755C39.8108 60.1003 40.2004 60.574 40.4711 61.176C40.7418 61.778 40.8771 62.457 40.8771 63.213C40.8771 63.969 40.7418 64.648 40.4711 65.25C40.2004 65.852 39.8108 66.3303 39.3021 66.685C38.7981 67.035 38.1938 67.21 37.4891 67.21ZM34.0101 70.36V59.44H35.1231V65.005H35.2631V70.36H34.0101ZM37.3351 66.069C37.8344 66.069 38.2474 65.943 38.5741 65.691C38.9008 65.439 39.1458 65.0983 39.3091 64.669C39.4724 64.235 39.5541 63.7497 39.5541 63.213C39.5541 62.681 39.4724 62.2003 39.3091 61.771C39.1504 61.3417 38.9031 61.001 38.5671 60.749C38.2358 60.497 37.8134 60.371 37.3001 60.371C36.8101 60.371 36.4041 60.4923 36.0821 60.735C35.7601 60.973 35.5198 61.3067 35.3611 61.736C35.2024 62.1607 35.1231 62.653 35.1231 63.213C35.1231 63.7637 35.2001 64.256 35.3541 64.69C35.5128 65.1193 35.7554 65.4577 36.0821 65.705C36.4088 65.9477 36.8264 66.069 37.3351 66.069ZM45.8836 67.21C45.1743 67.21 44.577 67.035 44.0916 66.685C43.6063 66.3303 43.2376 65.852 42.9856 65.25C42.7383 64.6433 42.6146 63.9643 42.6146 63.213C42.6146 62.4523 42.7383 61.771 42.9856 61.169C43.2376 60.567 43.6063 60.0933 44.0916 59.748C44.5816 59.4027 45.1813 59.23 45.8906 59.23C46.5906 59.23 47.1926 59.405 47.6966 59.755C48.2053 60.1003 48.595 60.574 48.8656 61.176C49.1363 61.778 49.2716 62.457 49.2716 63.213C49.2716 63.969 49.1363 64.648 48.8656 65.25C48.595 65.852 48.2053 66.3303 47.6966 66.685C47.1926 67.035 46.5883 67.21 45.8836 67.21ZM42.4046 70.36V59.44H43.5176V65.005H43.6576V70.36H42.4046ZM45.7296 66.069C46.229 66.069 46.642 65.943 46.9686 65.691C47.2953 65.439 47.5403 65.0983 47.7036 64.669C47.867 64.235 47.9486 63.7497 47.9486 63.213C47.9486 62.681 47.867 62.2003 47.7036 61.771C47.545 61.3417 47.2976 61.001 46.9616 60.749C46.6303 60.497 46.208 60.371 45.6946 60.371C45.2046 60.371 44.7986 60.4923 44.4766 60.735C44.1546 60.973 43.9143 61.3067 43.7556 61.736C43.597 62.1607 43.5176 62.653 43.5176 63.213C43.5176 63.7637 43.5946 64.256 43.7486 64.69C43.9073 65.1193 44.15 65.4577 44.4766 65.705C44.8033 65.9477 45.221 66.069 45.7296 66.069ZM50.8062 67V59.44H51.9192V61.267L51.7372 61.029C51.8258 60.7957 51.9402 60.581 52.0802 60.385C52.2248 60.189 52.3858 60.028 52.5632 59.902C52.7592 59.7433 52.9808 59.622 53.2282 59.538C53.4755 59.454 53.7275 59.405 53.9842 59.391C54.2408 59.3723 54.4812 59.3887 54.7052 59.44V60.609C54.4438 60.539 54.1568 60.5203 53.8442 60.553C53.5315 60.5857 53.2422 60.7 52.9762 60.896C52.7335 61.0687 52.5445 61.2787 52.4092 61.526C52.2785 61.7733 52.1875 62.0417 52.1362 62.331C52.0848 62.6157 52.0592 62.9073 52.0592 63.206V67H50.8062ZM59.1121 67.21C58.3608 67.21 57.7121 67.0397 57.1661 66.699C56.6248 66.3583 56.2071 65.887 55.9131 65.285C55.6191 64.683 55.4721 63.9923 55.4721 63.213C55.4721 62.4197 55.6214 61.7243 55.9201 61.127C56.2188 60.5297 56.6411 60.0653 57.1871 59.734C57.7331 59.398 58.3748 59.23 59.1121 59.23C59.8681 59.23 60.5191 59.4003 61.0651 59.741C61.6111 60.077 62.0288 60.546 62.3181 61.148C62.6121 61.7453 62.7591 62.4337 62.7591 63.213C62.7591 64.0017 62.6121 64.697 62.3181 65.299C62.0241 65.8963 61.6041 66.3653 61.0581 66.706C60.5121 67.042 59.8634 67.21 59.1121 67.21ZM59.1121 66.027C59.8961 66.027 60.4794 65.7657 60.8621 65.243C61.2448 64.7203 61.4361 64.0437 61.4361 63.213C61.4361 62.359 61.2424 61.68 60.8551 61.176C60.4678 60.6673 59.8868 60.413 59.1121 60.413C58.5848 60.413 58.1508 60.532 57.8101 60.77C57.4694 61.008 57.2151 61.337 57.0471 61.757C56.8791 62.177 56.7951 62.6623 56.7951 63.213C56.7951 64.0623 56.9911 64.7437 57.3831 65.257C57.7751 65.7703 58.3514 66.027 59.1121 66.027ZM66.0709 67L63.3269 59.44H64.5869L66.7079 65.411L68.8219 59.44H70.0889L67.3449 67H66.0709ZM74.3576 67.21C73.6156 67.21 72.9669 67.0467 72.4116 66.72C71.8609 66.3887 71.4316 65.929 71.1236 65.341C70.8156 64.7483 70.6616 64.0577 70.6616 63.269C70.6616 62.443 70.8132 61.729 71.1166 61.127C71.4199 60.5203 71.8422 60.0537 72.3836 59.727C72.9296 59.3957 73.5689 59.23 74.3016 59.23C75.0622 59.23 75.7086 59.405 76.2406 59.755C76.7772 60.105 77.1786 60.6043 77.4446 61.253C77.7152 61.9017 77.8319 62.674 77.7946 63.57H76.5346V63.122C76.5206 62.1933 76.3316 61.5003 75.9676 61.043C75.6036 60.581 75.0622 60.35 74.3436 60.35C73.5736 60.35 72.9879 60.5973 72.5866 61.092C72.1852 61.5867 71.9846 62.296 71.9846 63.22C71.9846 64.1113 72.1852 64.802 72.5866 65.292C72.9879 65.782 73.5596 66.027 74.3016 66.027C74.8009 66.027 75.2349 65.9127 75.6036 65.684C75.9722 65.4553 76.2616 65.1263 76.4716 64.697L77.6686 65.11C77.3746 65.7773 76.9312 66.2953 76.3386 66.664C75.7506 67.028 75.0902 67.21 74.3576 67.21ZM71.5646 63.57V62.569H77.1506V63.57H71.5646ZM85.3408 67.21C84.5754 67.21 83.9244 67.0397 83.3878 66.699C82.8558 66.3537 82.4498 65.88 82.1698 65.278C81.8898 64.676 81.7451 63.99 81.7358 63.22C81.7451 62.4313 81.8921 61.7383 82.1768 61.141C82.4661 60.539 82.8791 60.07 83.4158 59.734C83.9524 59.398 84.5988 59.23 85.3548 59.23C86.1528 59.23 86.8388 59.426 87.4128 59.818C87.9914 60.21 88.3788 60.7467 88.5748 61.428L87.3428 61.799C87.1841 61.3603 86.9251 61.0197 86.5658 60.777C86.2111 60.5343 85.8028 60.413 85.3408 60.413C84.8228 60.413 84.3958 60.5343 84.0598 60.777C83.7238 61.015 83.4741 61.3463 83.3108 61.771C83.1474 62.191 83.0634 62.674 83.0588 63.22C83.0681 64.06 83.2618 64.739 83.6398 65.257C84.0224 65.7703 84.5894 66.027 85.3408 66.027C85.8354 66.027 86.2461 65.915 86.5728 65.691C86.8994 65.4623 87.1468 65.1333 87.3148 64.704L88.5748 65.033C88.3134 65.7377 87.9051 66.2767 87.3498 66.65C86.7944 67.0233 86.1248 67.21 85.3408 67.21ZM93.0184 67.21C92.267 67.21 91.6184 67.0397 91.0724 66.699C90.531 66.3583 90.1134 65.887 89.8194 65.285C89.5254 64.683 89.3784 63.9923 89.3784 63.213C89.3784 62.4197 89.5277 61.7243 89.8264 61.127C90.125 60.5297 90.5474 60.0653 91.0934 59.734C91.6394 59.398 92.281 59.23 93.0184 59.23C93.7744 59.23 94.4254 59.4003 94.9714 59.741C95.5174 60.077 95.935 60.546 96.2244 61.148C96.5184 61.7453 96.6654 62.4337 96.6654 63.213C96.6654 64.0017 96.5184 64.697 96.2244 65.299C95.9304 65.8963 95.5104 66.3653 94.9644 66.706C94.4184 67.042 93.7697 67.21 93.0184 67.21ZM93.0184 66.027C93.8024 66.027 94.3857 65.7657 94.7684 65.243C95.151 64.7203 95.3424 64.0437 95.3424 63.213C95.3424 62.359 95.1487 61.68 94.7614 61.176C94.374 60.6673 93.793 60.413 93.0184 60.413C92.491 60.413 92.057 60.532 91.7164 60.77C91.3757 61.008 91.1214 61.337 90.9534 61.757C90.7854 62.177 90.7014 62.6623 90.7014 63.213C90.7014 64.0623 90.8974 64.7437 91.2894 65.257C91.6814 65.7703 92.2577 66.027 93.0184 66.027ZM103.59 67V63.213C103.59 62.8537 103.557 62.5083 103.492 62.177C103.431 61.8457 103.321 61.5493 103.163 61.288C103.009 61.022 102.799 60.812 102.533 60.658C102.271 60.504 101.94 60.427 101.539 60.427C101.226 60.427 100.941 60.4807 100.685 60.588C100.433 60.6907 100.216 60.8493 100.034 61.064C99.8516 61.2787 99.7092 61.5493 99.6066 61.876C99.5086 62.198 99.4596 62.5783 99.4596 63.017L98.6406 62.765C98.6406 62.0323 98.7712 61.4047 99.0326 60.882C99.2986 60.3547 99.6696 59.951 100.146 59.671C100.626 59.3863 101.191 59.244 101.84 59.244C102.33 59.244 102.747 59.321 103.093 59.475C103.438 59.629 103.725 59.8343 103.954 60.091C104.182 60.343 104.362 60.6277 104.493 60.945C104.623 61.2577 104.714 61.5773 104.766 61.904C104.822 62.226 104.85 62.5317 104.85 62.821V67H103.59ZM98.1996 67V59.44H99.3196V61.463H99.4596V67H98.1996ZM112.052 67V63.213C112.052 62.8537 112.02 62.5083 111.954 62.177C111.894 61.8457 111.784 61.5493 111.625 61.288C111.471 61.022 111.261 60.812 110.995 60.658C110.734 60.504 110.403 60.427 110.001 60.427C109.689 60.427 109.404 60.4807 109.147 60.588C108.895 60.6907 108.678 60.8493 108.496 61.064C108.314 61.2787 108.172 61.5493 108.069 61.876C107.971 62.198 107.922 62.5783 107.922 63.017L107.103 62.765C107.103 62.0323 107.234 61.4047 107.495 60.882C107.761 60.3547 108.132 59.951 108.608 59.671C109.089 59.3863 109.654 59.244 110.302 59.244C110.792 59.244 111.21 59.321 111.555 59.475C111.901 59.629 112.188 59.8343 112.416 60.091C112.645 60.343 112.825 60.6277 112.955 60.945C113.086 61.2577 113.177 61.5773 113.228 61.904C113.284 62.226 113.312 62.5317 113.312 62.821V67H112.052ZM106.662 67V59.44H107.782V61.463H107.922V67H106.662ZM118.34 67.21C117.598 67.21 116.949 67.0467 116.394 66.72C115.843 66.3887 115.414 65.929 115.106 65.341C114.798 64.7483 114.644 64.0577 114.644 63.269C114.644 62.443 114.796 61.729 115.099 61.127C115.402 60.5203 115.825 60.0537 116.366 59.727C116.912 59.3957 117.551 59.23 118.284 59.23C119.045 59.23 119.691 59.405 120.223 59.755C120.76 60.105 121.161 60.6043 121.427 61.253C121.698 61.9017 121.814 62.674 121.777 63.57H120.517V63.122C120.503 62.1933 120.314 61.5003 119.95 61.043C119.586 60.581 119.045 60.35 118.326 60.35C117.556 60.35 116.97 60.5973 116.569 61.092C116.168 61.5867 115.967 62.296 115.967 63.22C115.967 64.1113 116.168 64.802 116.569 65.292C116.97 65.782 117.542 66.027 118.284 66.027C118.783 66.027 119.217 65.9127 119.586 65.684C119.955 65.4553 120.244 65.1263 120.454 64.697L121.651 65.11C121.357 65.7773 120.914 66.2953 120.321 66.664C119.733 67.028 119.073 67.21 118.34 67.21ZM115.547 63.57V62.569H121.133V63.57H115.547ZM126.52 67.21C125.755 67.21 125.104 67.0397 124.567 66.699C124.035 66.3537 123.629 65.88 123.349 65.278C123.069 64.676 122.925 63.99 122.915 63.22C122.925 62.4313 123.072 61.7383 123.356 61.141C123.646 60.539 124.059 60.07 124.595 59.734C125.132 59.398 125.778 59.23 126.534 59.23C127.332 59.23 128.018 59.426 128.592 59.818C129.171 60.21 129.558 60.7467 129.754 61.428L128.522 61.799C128.364 61.3603 128.105 61.0197 127.745 60.777C127.391 60.5343 126.982 60.413 126.52 60.413C126.002 60.413 125.575 60.5343 125.239 60.777C124.903 61.015 124.654 61.3463 124.49 61.771C124.327 62.191 124.243 62.674 124.238 63.22C124.248 64.06 124.441 64.739 124.819 65.257C125.202 65.7703 125.769 66.027 126.52 66.027C127.015 66.027 127.426 65.915 127.752 65.691C128.079 65.4623 128.326 65.1333 128.494 64.704L129.754 65.033C129.493 65.7377 129.085 66.2767 128.529 66.65C127.974 67.0233 127.304 67.21 126.52 67.21ZM135.404 67C134.956 67.0887 134.513 67.1237 134.074 67.105C133.64 67.091 133.253 67.0047 132.912 66.846C132.571 66.6827 132.312 66.4307 132.135 66.09C131.986 65.7913 131.904 65.4903 131.89 65.187C131.881 64.879 131.876 64.5313 131.876 64.144V57.34H133.122V64.088C133.122 64.396 133.124 64.6597 133.129 64.879C133.138 65.0983 133.187 65.2873 133.276 65.446C133.444 65.7447 133.71 65.9197 134.074 65.971C134.443 66.0223 134.886 66.0083 135.404 65.929V67ZM130.343 60.469V59.44H135.404V60.469H130.343ZM137.079 58.103V56.815H138.325V58.103H137.079ZM137.079 67V59.44H138.325V67H137.079ZM143.645 67.21C142.894 67.21 142.245 67.0397 141.699 66.699C141.158 66.3583 140.74 65.887 140.446 65.285C140.152 64.683 140.005 63.9923 140.005 63.213C140.005 62.4197 140.155 61.7243 140.453 61.127C140.752 60.5297 141.174 60.0653 141.72 59.734C142.266 59.398 142.908 59.23 143.645 59.23C144.401 59.23 145.052 59.4003 145.598 59.741C146.144 60.077 146.562 60.546 146.851 61.148C147.145 61.7453 147.292 62.4337 147.292 63.213C147.292 64.0017 147.145 64.697 146.851 65.299C146.557 65.8963 146.137 66.3653 145.591 66.706C145.045 67.042 144.397 67.21 143.645 67.21ZM143.645 66.027C144.429 66.027 145.013 65.7657 145.395 65.243C145.778 64.7203 145.969 64.0437 145.969 63.213C145.969 62.359 145.776 61.68 145.388 61.176C145.001 60.6673 144.42 60.413 143.645 60.413C143.118 60.413 142.684 60.532 142.343 60.77C142.003 61.008 141.748 61.337 141.58 61.757C141.412 62.177 141.328 62.6623 141.328 63.213C141.328 64.0623 141.524 64.7437 141.916 65.257C142.308 65.7703 142.885 66.027 143.645 66.027ZM154.217 67V63.213C154.217 62.8537 154.184 62.5083 154.119 62.177C154.058 61.8457 153.948 61.5493 153.79 61.288C153.636 61.022 153.426 60.812 153.16 60.658C152.898 60.504 152.567 60.427 152.166 60.427C151.853 60.427 151.568 60.4807 151.312 60.588C151.06 60.6907 150.843 60.8493 150.661 61.064C150.479 61.2787 150.336 61.5493 150.234 61.876C150.136 62.198 150.087 62.5783 150.087 63.017L149.268 62.765C149.268 62.0323 149.398 61.4047 149.66 60.882C149.926 60.3547 150.297 59.951 150.773 59.671C151.253 59.3863 151.818 59.244 152.467 59.244C152.957 59.244 153.374 59.321 153.72 59.475C154.065 59.629 154.352 59.8343 154.581 60.091C154.809 60.343 154.989 60.6277 155.12 60.945C155.25 61.2577 155.341 61.5773 155.393 61.904C155.449 62.226 155.477 62.5317 155.477 62.821V67H154.217ZM148.827 67V59.44H149.947V61.463H150.087V67H148.827ZM164.32 67C163.872 67.0887 163.429 67.1237 162.99 67.105C162.556 67.091 162.169 67.0047 161.828 66.846C161.487 66.6827 161.228 66.4307 161.051 66.09C160.902 65.7913 160.82 65.4903 160.806 65.187C160.797 64.879 160.792 64.5313 160.792 64.144V57.34H162.038V64.088C162.038 64.396 162.04 64.6597 162.045 64.879C162.054 65.0983 162.103 65.2873 162.192 65.446C162.36 65.7447 162.626 65.9197 162.99 65.971C163.359 66.0223 163.802 66.0083 164.32 65.929V67ZM159.259 60.469V59.44H164.32V60.469H159.259ZM168.761 67.21C168.009 67.21 167.361 67.0397 166.815 66.699C166.273 66.3583 165.856 65.887 165.562 65.285C165.268 64.683 165.121 63.9923 165.121 63.213C165.121 62.4197 165.27 61.7243 165.569 61.127C165.867 60.5297 166.29 60.0653 166.836 59.734C167.382 59.398 168.023 59.23 168.761 59.23C169.517 59.23 170.168 59.4003 170.714 59.741C171.26 60.077 171.677 60.546 171.967 61.148C172.261 61.7453 172.408 62.4337 172.408 63.213C172.408 64.0017 172.261 64.697 171.967 65.299C171.673 65.8963 171.253 66.3653 170.707 66.706C170.161 67.042 169.512 67.21 168.761 67.21ZM168.761 66.027C169.545 66.027 170.128 65.7657 170.511 65.243C170.893 64.7203 171.085 64.0437 171.085 63.213C171.085 62.359 170.891 61.68 170.504 61.176C170.116 60.6673 169.535 60.413 168.761 60.413C168.233 60.413 167.799 60.532 167.459 60.77C167.118 61.008 166.864 61.337 166.696 61.757C166.528 62.177 166.444 62.6623 166.444 63.213C166.444 64.0623 166.64 64.7437 167.032 65.257C167.424 65.7703 168 66.027 168.761 66.027ZM177.801 70.36L179.264 66.384L179.285 67.56L175.981 59.44H177.29L179.88 65.971H179.432L181.861 59.44H183.128L179.012 70.36H177.801ZM187.231 67.21C186.48 67.21 185.831 67.0397 185.285 66.699C184.744 66.3583 184.326 65.887 184.032 65.285C183.738 64.683 183.591 63.9923 183.591 63.213C183.591 62.4197 183.741 61.7243 184.039 61.127C184.338 60.5297 184.76 60.0653 185.306 59.734C185.852 59.398 186.494 59.23 187.231 59.23C187.987 59.23 188.638 59.4003 189.184 59.741C189.73 60.077 190.148 60.546 190.437 61.148C190.731 61.7453 190.878 62.4337 190.878 63.213C190.878 64.0017 190.731 64.697 190.437 65.299C190.143 65.8963 189.723 66.3653 189.177 66.706C188.631 67.042 187.983 67.21 187.231 67.21ZM187.231 66.027C188.015 66.027 188.599 65.7657 188.981 65.243C189.364 64.7203 189.555 64.0437 189.555 63.213C189.555 62.359 189.362 61.68 188.974 61.176C188.587 60.6673 188.006 60.413 187.231 60.413C186.704 60.413 186.27 60.532 185.929 60.77C185.589 61.008 185.334 61.337 185.166 61.757C184.998 62.177 184.914 62.6623 184.914 63.213C184.914 64.0623 185.11 64.7437 185.502 65.257C185.894 65.7703 186.471 66.027 187.231 66.027ZM195.289 67.196C194.804 67.196 194.386 67.119 194.036 66.965C193.691 66.811 193.404 66.6057 193.175 66.349C192.947 66.0923 192.767 65.8077 192.636 65.495C192.506 65.1823 192.412 64.8627 192.356 64.536C192.305 64.2093 192.279 63.9037 192.279 63.619V59.44H193.539V63.227C193.539 63.5817 193.572 63.9247 193.637 64.256C193.703 64.5873 193.812 64.886 193.966 65.152C194.125 65.418 194.335 65.628 194.596 65.782C194.862 65.936 195.194 66.013 195.59 66.013C195.903 66.013 196.188 65.9593 196.444 65.852C196.701 65.7447 196.92 65.586 197.102 65.376C197.284 65.1613 197.424 64.8907 197.522 64.564C197.62 64.2373 197.669 63.857 197.669 63.423L198.488 63.675C198.488 64.403 198.355 65.0307 198.089 65.558C197.828 66.0853 197.457 66.4913 196.976 66.776C196.5 67.056 195.938 67.196 195.289 67.196ZM197.809 67V64.977H197.669V59.44H198.922V67H197.809ZM200.882 67V59.44H201.995V61.267L201.813 61.029C201.902 60.7957 202.016 60.581 202.156 60.385C202.301 60.189 202.462 60.028 202.639 59.902C202.835 59.7433 203.057 59.622 203.304 59.538C203.552 59.454 203.804 59.405 204.06 59.391C204.317 59.3723 204.557 59.3887 204.781 59.44V60.609C204.52 60.539 204.233 60.5203 203.92 60.553C203.608 60.5857 203.318 60.7 203.052 60.896C202.81 61.0687 202.621 61.2787 202.485 61.526C202.355 61.7733 202.264 62.0417 202.212 62.331C202.161 62.6157 202.135 62.9073 202.135 63.206V67H200.882ZM26.59 86L24.28 78.433L25.519 78.44L27.206 83.97L28.907 78.44H30.006L31.7 83.97L33.394 78.44H34.626L32.316 86H31.28L29.453 80.253L27.626 86H26.59ZM37.6153 86.21C37.0507 86.21 36.577 86.1073 36.1943 85.902C35.8163 85.692 35.5293 85.4167 35.3333 85.076C35.142 84.7353 35.0463 84.362 35.0463 83.956C35.0463 83.5593 35.121 83.2163 35.2703 82.927C35.4243 82.633 35.639 82.3903 35.9143 82.199C36.1897 82.003 36.5187 81.849 36.9013 81.737C37.2607 81.639 37.662 81.555 38.1053 81.485C38.5533 81.4103 39.006 81.3427 39.4633 81.282C39.9207 81.2213 40.3477 81.163 40.7443 81.107L40.2963 81.366C40.3103 80.694 40.175 80.197 39.8903 79.875C39.6103 79.553 39.125 79.392 38.4343 79.392C37.977 79.392 37.5757 79.497 37.2303 79.707C36.8897 79.9123 36.6493 80.2483 36.5093 80.715L35.3263 80.358C35.5083 79.6953 35.8607 79.175 36.3833 78.797C36.906 78.419 37.5943 78.23 38.4483 78.23C39.1343 78.23 39.7223 78.3537 40.2123 78.601C40.707 78.8437 41.0617 79.2123 41.2763 79.707C41.3837 79.9403 41.4513 80.1947 41.4793 80.47C41.5073 80.7407 41.5213 81.0253 41.5213 81.324V86H40.4153V84.187L40.6743 84.355C40.3897 84.9663 39.9907 85.4283 39.4773 85.741C38.9687 86.0537 38.348 86.21 37.6153 86.21ZM37.8043 85.167C38.2523 85.167 38.6397 85.0877 38.9663 84.929C39.2977 84.7657 39.5637 84.5533 39.7643 84.292C39.965 84.026 40.0957 83.7367 40.1563 83.424C40.2263 83.1907 40.2637 82.9317 40.2683 82.647C40.2777 82.3577 40.2823 82.136 40.2823 81.982L40.7163 82.171C40.3103 82.227 39.9113 82.2807 39.5193 82.332C39.1273 82.3833 38.7563 82.4393 38.4063 82.5C38.0563 82.556 37.7413 82.6237 37.4613 82.703C37.256 82.7683 37.0623 82.8523 36.8803 82.955C36.703 83.0577 36.5583 83.1907 36.4463 83.354C36.339 83.5127 36.2853 83.711 36.2853 83.949C36.2853 84.1543 36.3367 84.3503 36.4393 84.537C36.5467 84.7237 36.71 84.8753 36.9293 84.992C37.1533 85.1087 37.445 85.167 37.8043 85.167ZM43.4813 86V75.71H44.7273V86H43.4813ZM46.9677 86V75.71H48.2137V86H46.9677ZM53.59 86.21C52.848 86.21 52.1993 86.0467 51.644 85.72C51.0933 85.3887 50.664 84.929 50.356 84.341C50.048 83.7483 49.894 83.0577 49.894 82.269C49.894 81.443 50.0457 80.729 50.349 80.127C50.6523 79.5203 51.0747 79.0537 51.616 78.727C52.162 78.3957 52.8013 78.23 53.534 78.23C54.2947 78.23 54.941 78.405 55.473 78.755C56.0097 79.105 56.411 79.6043 56.677 80.253C56.9477 80.9017 57.0643 81.674 57.027 82.57H55.767V82.122C55.753 81.1933 55.564 80.5003 55.2 80.043C54.836 79.581 54.2947 79.35 53.576 79.35C52.806 79.35 52.2203 79.5973 51.819 80.092C51.4177 80.5867 51.217 81.296 51.217 82.22C51.217 83.1113 51.4177 83.802 51.819 84.292C52.2203 84.782 52.792 85.027 53.534 85.027C54.0333 85.027 54.4673 84.9127 54.836 84.684C55.2047 84.4553 55.494 84.1263 55.704 83.697L56.901 84.11C56.607 84.7773 56.1637 85.2953 55.571 85.664C54.983 86.028 54.3227 86.21 53.59 86.21ZM50.797 82.57V81.569H56.383V82.57H50.797ZM62.8065 86C62.3585 86.0887 61.9151 86.1237 61.4765 86.105C61.0425 86.091 60.6551 86.0047 60.3145 85.846C59.9738 85.6827 59.7148 85.4307 59.5375 85.09C59.3881 84.7913 59.3065 84.4903 59.2925 84.187C59.2831 83.879 59.2785 83.5313 59.2785 83.144V76.34H60.5245V83.088C60.5245 83.396 60.5268 83.6597 60.5315 83.879C60.5408 84.0983 60.5898 84.2873 60.6785 84.446C60.8465 84.7447 61.1125 84.9197 61.4765 84.971C61.8451 85.0223 62.2885 85.0083 62.8065 84.929V86ZM57.7455 79.469V78.44H62.8065V79.469H57.7455ZM69.2931 86.21C68.7284 86.21 68.2547 86.1073 67.8721 85.902C67.4941 85.692 67.2071 85.4167 67.0111 85.076C66.8197 84.7353 66.7241 84.362 66.7241 83.956C66.7241 83.5593 66.7987 83.2163 66.9481 82.927C67.1021 82.633 67.3167 82.3903 67.5921 82.199C67.8674 82.003 68.1964 81.849 68.5791 81.737C68.9384 81.639 69.3397 81.555 69.7831 81.485C70.2311 81.4103 70.6837 81.3427 71.1411 81.282C71.5984 81.2213 72.0254 81.163 72.4221 81.107L71.9741 81.366C71.9881 80.694 71.8527 80.197 71.5681 79.875C71.2881 79.553 70.8027 79.392 70.1121 79.392C69.6547 79.392 69.2534 79.497 68.9081 79.707C68.5674 79.9123 68.3271 80.2483 68.1871 80.715L67.0041 80.358C67.1861 79.6953 67.5384 79.175 68.0611 78.797C68.5837 78.419 69.2721 78.23 70.1261 78.23C70.8121 78.23 71.4001 78.3537 71.8901 78.601C72.3847 78.8437 72.7394 79.2123 72.9541 79.707C73.0614 79.9403 73.1291 80.1947 73.1571 80.47C73.1851 80.7407 73.1991 81.0253 73.1991 81.324V86H72.0931V84.187L72.3521 84.355C72.0674 84.9663 71.6684 85.4283 71.1551 85.741C70.6464 86.0537 70.0257 86.21 69.2931 86.21ZM69.4821 85.167C69.9301 85.167 70.3174 85.0877 70.6441 84.929C70.9754 84.7657 71.2414 84.5533 71.4421 84.292C71.6427 84.026 71.7734 83.7367 71.8341 83.424C71.9041 83.1907 71.9414 82.9317 71.9461 82.647C71.9554 82.3577 71.9601 82.136 71.9601 81.982L72.3941 82.171C71.9881 82.227 71.5891 82.2807 71.1971 82.332C70.8051 82.3833 70.4341 82.4393 70.0841 82.5C69.7341 82.556 69.4191 82.6237 69.1391 82.703C68.9337 82.7683 68.7401 82.8523 68.5581 82.955C68.3807 83.0577 68.2361 83.1907 68.1241 83.354C68.0167 83.5127 67.9631 83.711 67.9631 83.949C67.9631 84.1543 68.0144 84.3503 68.1171 84.537C68.2244 84.7237 68.3877 84.8753 68.6071 84.992C68.8311 85.1087 69.1227 85.167 69.4821 85.167ZM80.4021 86V82.213C80.4021 81.8537 80.3694 81.5083 80.3041 81.177C80.2434 80.8457 80.1337 80.5493 79.9751 80.288C79.8211 80.022 79.6111 79.812 79.3451 79.658C79.0837 79.504 78.7524 79.427 78.3511 79.427C78.0384 79.427 77.7537 79.4807 77.4971 79.588C77.2451 79.6907 77.0281 79.8493 76.8461 80.064C76.6641 80.2787 76.5217 80.5493 76.4191 80.876C76.3211 81.198 76.2721 81.5783 76.2721 82.017L75.4531 81.765C75.4531 81.0323 75.5837 80.4047 75.8451 79.882C76.1111 79.3547 76.4821 78.951 76.9581 78.671C77.4387 78.3863 78.0034 78.244 78.6521 78.244C79.1421 78.244 79.5597 78.321 79.9051 78.475C80.2504 78.629 80.5374 78.8343 80.7661 79.091C80.9947 79.343 81.1744 79.6277 81.3051 79.945C81.4357 80.2577 81.5267 80.5773 81.5781 80.904C81.6341 81.226 81.6621 81.5317 81.6621 81.821V86H80.4021ZM75.0121 86V78.44H76.1321V80.463H76.2721V86H75.0121ZM86.3816 86.21C85.6769 86.21 85.0726 86.035 84.5686 85.685C84.0646 85.3303 83.6749 84.852 83.3996 84.25C83.1289 83.648 82.9936 82.969 82.9936 82.213C82.9936 81.457 83.1289 80.778 83.3996 80.176C83.6749 79.574 84.0646 79.1003 84.5686 78.755C85.0726 78.405 85.6746 78.23 86.3746 78.23C87.0886 78.23 87.6883 78.4027 88.1736 78.748C88.6589 79.0933 89.0253 79.567 89.2726 80.169C89.5246 80.771 89.6506 81.4523 89.6506 82.213C89.6506 82.9643 89.5246 83.6433 89.2726 84.25C89.0253 84.852 88.6589 85.3303 88.1736 85.685C87.6883 86.035 87.0909 86.21 86.3816 86.21ZM86.5356 85.069C87.0443 85.069 87.4619 84.9477 87.7886 84.705C88.1153 84.4577 88.3556 84.1193 88.5096 83.69C88.6683 83.256 88.7476 82.7637 88.7476 82.213C88.7476 81.653 88.6683 81.1607 88.5096 80.736C88.3556 80.3067 88.1176 79.973 87.7956 79.735C87.4736 79.4923 87.0653 79.371 86.5706 79.371C86.0573 79.371 85.6326 79.497 85.2966 79.749C84.9653 80.001 84.7179 80.3417 84.5546 80.771C84.3959 81.2003 84.3166 81.681 84.3166 82.213C84.3166 82.7497 84.3983 83.235 84.5616 83.669C84.7249 84.0983 84.9699 84.439 85.2966 84.691C85.6279 84.943 86.0409 85.069 86.5356 85.069ZM88.7476 86V80.435H88.6076V75.92H89.8606V86H88.7476ZM96.7735 86.21C96.2089 86.21 95.7352 86.1073 95.3525 85.902C94.9745 85.692 94.6875 85.4167 94.4915 85.076C94.3002 84.7353 94.2045 84.362 94.2045 83.956C94.2045 83.5593 94.2792 83.2163 94.4285 82.927C94.5825 82.633 94.7972 82.3903 95.0725 82.199C95.3479 82.003 95.6769 81.849 96.0595 81.737C96.4189 81.639 96.8202 81.555 97.2635 81.485C97.7115 81.4103 98.1642 81.3427 98.6215 81.282C99.0789 81.2213 99.5059 81.163 99.9025 81.107L99.4545 81.366C99.4685 80.694 99.3332 80.197 99.0485 79.875C98.7685 79.553 98.2832 79.392 97.5925 79.392C97.1352 79.392 96.7339 79.497 96.3885 79.707C96.0479 79.9123 95.8075 80.2483 95.6675 80.715L94.4845 80.358C94.6665 79.6953 95.0189 79.175 95.5415 78.797C96.0642 78.419 96.7525 78.23 97.6065 78.23C98.2925 78.23 98.8805 78.3537 99.3705 78.601C99.8652 78.8437 100.22 79.2123 100.435 79.707C100.542 79.9403 100.61 80.1947 100.638 80.47C100.666 80.7407 100.68 81.0253 100.68 81.324V86H99.5735V84.187L99.8325 84.355C99.5479 84.9663 99.1489 85.4283 98.6355 85.741C98.1269 86.0537 97.5062 86.21 96.7735 86.21ZM96.9625 85.167C97.4105 85.167 97.7979 85.0877 98.1245 84.929C98.4559 84.7657 98.7219 84.5533 98.9225 84.292C99.1232 84.026 99.2539 83.7367 99.3145 83.424C99.3845 83.1907 99.4219 82.9317 99.4265 82.647C99.4359 82.3577 99.4405 82.136 99.4405 81.982L99.8745 82.171C99.4685 82.227 99.0695 82.2807 98.6775 82.332C98.2855 82.3833 97.9145 82.4393 97.5645 82.5C97.2145 82.556 96.8995 82.6237 96.6195 82.703C96.4142 82.7683 96.2205 82.8523 96.0385 82.955C95.8612 83.0577 95.7165 83.1907 95.6045 83.354C95.4972 83.5127 95.4435 83.711 95.4435 83.949C95.4435 84.1543 95.4949 84.3503 95.5975 84.537C95.7049 84.7237 95.8682 84.8753 96.0875 84.992C96.3115 85.1087 96.6032 85.167 96.9625 85.167ZM105.37 86.196C104.884 86.196 104.467 86.119 104.117 85.965C103.771 85.811 103.484 85.6057 103.256 85.349C103.027 85.0923 102.847 84.8077 102.717 84.495C102.586 84.1823 102.493 83.8627 102.437 83.536C102.385 83.2093 102.36 82.9037 102.36 82.619V78.44H103.62V82.227C103.62 82.5817 103.652 82.9247 103.718 83.256C103.783 83.5873 103.893 83.886 104.047 84.152C104.205 84.418 104.415 84.628 104.677 84.782C104.943 84.936 105.274 85.013 105.671 85.013C105.983 85.013 106.268 84.9593 106.525 84.852C106.781 84.7447 107.001 84.586 107.183 84.376C107.365 84.1613 107.505 83.8907 107.603 83.564C107.701 83.2373 107.75 82.857 107.75 82.423L108.569 82.675C108.569 83.403 108.436 84.0307 108.17 84.558C107.908 85.0853 107.537 85.4913 107.057 85.776C106.581 86.056 106.018 86.196 105.37 86.196ZM107.89 86V83.977H107.75V78.44H109.003V86H107.89ZM115.183 86C114.735 86.0887 114.292 86.1237 113.853 86.105C113.419 86.091 113.032 86.0047 112.691 85.846C112.351 85.6827 112.092 85.4307 111.914 85.09C111.765 84.7913 111.683 84.4903 111.669 84.187C111.66 83.879 111.655 83.5313 111.655 83.144V76.34H112.901V83.088C112.901 83.396 112.904 83.6597 112.908 83.879C112.918 84.0983 112.967 84.2873 113.055 84.446C113.223 84.7447 113.489 84.9197 113.853 84.971C114.222 85.0223 114.665 85.0083 115.183 84.929V86ZM110.122 79.469V78.44H115.183V79.469H110.122ZM122.101 86V82.213C122.101 81.8537 122.069 81.5083 122.003 81.177C121.943 80.8457 121.833 80.5493 121.674 80.288C121.52 80.022 121.31 79.812 121.044 79.658C120.783 79.504 120.452 79.427 120.05 79.427C119.738 79.427 119.453 79.4807 119.196 79.588C118.944 79.6907 118.727 79.8493 118.545 80.064C118.363 80.2787 118.221 80.5493 118.118 80.876C118.02 81.198 117.971 81.5783 117.971 82.017L117.152 81.765C117.152 81.0323 117.283 80.4047 117.544 79.882C117.81 79.3547 118.181 78.951 118.657 78.671C119.138 78.3863 119.703 78.244 120.351 78.244C120.841 78.244 121.259 78.321 121.604 78.475C121.95 78.629 122.237 78.8343 122.465 79.091C122.694 79.343 122.874 79.6277 123.004 79.945C123.135 80.2577 123.226 80.5773 123.277 80.904C123.333 81.226 123.361 81.5317 123.361 81.821V86H122.101ZM116.711 86V75.92H117.831V81.485H117.971V86H116.711ZM128.401 86.21C127.65 86.21 127.001 86.0397 126.455 85.699C125.914 85.3583 125.496 84.887 125.202 84.285C124.908 83.683 124.761 82.9923 124.761 82.213C124.761 81.4197 124.911 80.7243 125.209 80.127C125.508 79.5297 125.93 79.0653 126.476 78.734C127.022 78.398 127.664 78.23 128.401 78.23C129.157 78.23 129.808 78.4003 130.354 78.741C130.9 79.077 131.318 79.546 131.607 80.148C131.901 80.7453 132.048 81.4337 132.048 82.213C132.048 83.0017 131.901 83.697 131.607 84.299C131.313 84.8963 130.893 85.3653 130.347 85.706C129.801 86.042 129.153 86.21 128.401 86.21ZM128.401 85.027C129.185 85.027 129.769 84.7657 130.151 84.243C130.534 83.7203 130.725 83.0437 130.725 82.213C130.725 81.359 130.532 80.68 130.144 80.176C129.757 79.6673 129.176 79.413 128.401 79.413C127.874 79.413 127.44 79.532 127.099 79.77C126.759 80.008 126.504 80.337 126.336 80.757C126.168 81.177 126.084 81.6623 126.084 82.213C126.084 83.0623 126.28 83.7437 126.672 84.257C127.064 84.7703 127.641 85.027 128.401 85.027ZM133.589 86V78.44H134.702V80.267L134.52 80.029C134.609 79.7957 134.723 79.581 134.863 79.385C135.008 79.189 135.169 79.028 135.346 78.902C135.542 78.7433 135.764 78.622 136.011 78.538C136.259 78.454 136.511 78.405 136.767 78.391C137.024 78.3723 137.264 78.3887 137.488 78.44V79.609C137.227 79.539 136.94 79.5203 136.627 79.553C136.315 79.5857 136.025 79.7 135.759 79.896C135.517 80.0687 135.328 80.2787 135.192 80.526C135.062 80.7733 134.971 81.0417 134.919 81.331C134.868 81.6157 134.842 81.9073 134.842 82.206V86H133.589ZM138.952 77.103V75.815H140.198V77.103H138.952ZM138.952 86V78.44H140.198V86H138.952ZM141.598 86V85.776L146.183 79.574H141.976V78.44H148.192V78.678L143.614 84.866H147.954V86H141.598ZM152.451 86.21C151.709 86.21 151.061 86.0467 150.505 85.72C149.955 85.3887 149.525 84.929 149.217 84.341C148.909 83.7483 148.755 83.0577 148.755 82.269C148.755 81.443 148.907 80.729 149.21 80.127C149.514 79.5203 149.936 79.0537 150.477 78.727C151.023 78.3957 151.663 78.23 152.395 78.23C153.156 78.23 153.802 78.405 154.334 78.755C154.871 79.105 155.272 79.6043 155.538 80.253C155.809 80.9017 155.926 81.674 155.888 82.57H154.628V82.122C154.614 81.1933 154.425 80.5003 154.061 80.043C153.697 79.581 153.156 79.35 152.437 79.35C151.667 79.35 151.082 79.5973 150.68 80.092C150.279 80.5867 150.078 81.296 150.078 82.22C150.078 83.1113 150.279 83.802 150.68 84.292C151.082 84.782 151.653 85.027 152.395 85.027C152.895 85.027 153.329 84.9127 153.697 84.684C154.066 84.4553 154.355 84.1263 154.565 83.697L155.762 84.11C155.468 84.7773 155.025 85.2953 154.432 85.664C153.844 86.028 153.184 86.21 152.451 86.21ZM149.658 82.57V81.569H155.244V82.57H149.658ZM162.399 86.21C161.834 86.21 161.36 86.1073 160.978 85.902C160.6 85.692 160.313 85.4167 160.117 85.076C159.925 84.7353 159.83 84.362 159.83 83.956C159.83 83.5593 159.904 83.2163 160.054 82.927C160.208 82.633 160.422 82.3903 160.698 82.199C160.973 82.003 161.302 81.849 161.685 81.737C162.044 81.639 162.445 81.555 162.889 81.485C163.337 81.4103 163.789 81.3427 164.247 81.282C164.704 81.2213 165.131 81.163 165.528 81.107L165.08 81.366C165.094 80.694 164.958 80.197 164.674 79.875C164.394 79.553 163.908 79.392 163.218 79.392C162.76 79.392 162.359 79.497 162.014 79.707C161.673 79.9123 161.433 80.2483 161.293 80.715L160.11 80.358C160.292 79.6953 160.644 79.175 161.167 78.797C161.689 78.419 162.378 78.23 163.232 78.23C163.918 78.23 164.506 78.3537 164.996 78.601C165.49 78.8437 165.845 79.2123 166.06 79.707C166.167 79.9403 166.235 80.1947 166.263 80.47C166.291 80.7407 166.305 81.0253 166.305 81.324V86H165.199V84.187L165.458 84.355C165.173 84.9663 164.774 85.4283 164.261 85.741C163.752 86.0537 163.131 86.21 162.399 86.21ZM162.588 85.167C163.036 85.167 163.423 85.0877 163.75 84.929C164.081 84.7657 164.347 84.5533 164.548 84.292C164.748 84.026 164.879 83.7367 164.94 83.424C165.01 83.1907 165.047 82.9317 165.052 82.647C165.061 82.3577 165.066 82.136 165.066 81.982L165.5 82.171C165.094 82.227 164.695 82.2807 164.303 82.332C163.911 82.3833 163.54 82.4393 163.19 82.5C162.84 82.556 162.525 82.6237 162.245 82.703C162.039 82.7683 161.846 82.8523 161.664 82.955C161.486 83.0577 161.342 83.1907 161.23 83.354C161.122 83.5127 161.069 83.711 161.069 83.949C161.069 84.1543 161.12 84.3503 161.223 84.537C161.33 84.7237 161.493 84.8753 161.713 84.992C161.937 85.1087 162.228 85.167 162.588 85.167ZM171.31 86.21C170.544 86.21 169.893 86.0397 169.357 85.699C168.825 85.3537 168.419 84.88 168.139 84.278C167.859 83.676 167.714 82.99 167.705 82.22C167.714 81.4313 167.861 80.7383 168.146 80.141C168.435 79.539 168.848 79.07 169.385 78.734C169.921 78.398 170.568 78.23 171.324 78.23C172.122 78.23 172.808 78.426 173.382 78.818C173.96 79.21 174.348 79.7467 174.544 80.428L173.312 80.799C173.153 80.3603 172.894 80.0197 172.535 79.777C172.18 79.5343 171.772 79.413 171.31 79.413C170.792 79.413 170.365 79.5343 170.029 79.777C169.693 80.015 169.443 80.3463 169.28 80.771C169.116 81.191 169.032 81.674 169.028 82.22C169.037 83.06 169.231 83.739 169.609 84.257C169.991 84.7703 170.558 85.027 171.31 85.027C171.804 85.027 172.215 84.915 172.542 84.691C172.868 84.4623 173.116 84.1333 173.284 83.704L174.544 84.033C174.282 84.7377 173.874 85.2767 173.319 85.65C172.763 86.0233 172.094 86.21 171.31 86.21ZM178.952 86.21C178.187 86.21 177.536 86.0397 176.999 85.699C176.467 85.3537 176.061 84.88 175.781 84.278C175.501 83.676 175.356 82.99 175.347 82.22C175.356 81.4313 175.503 80.7383 175.788 80.141C176.077 79.539 176.49 79.07 177.027 78.734C177.564 78.398 178.21 78.23 178.966 78.23C179.764 78.23 180.45 78.426 181.024 78.818C181.603 79.21 181.99 79.7467 182.186 80.428L180.954 80.799C180.795 80.3603 180.536 80.0197 180.177 79.777C179.822 79.5343 179.414 79.413 178.952 79.413C178.434 79.413 178.007 79.5343 177.671 79.777C177.335 80.015 177.085 80.3463 176.922 80.771C176.759 81.191 176.675 81.674 176.67 82.22C176.679 83.06 176.873 83.739 177.251 84.257C177.634 84.7703 178.201 85.027 178.952 85.027C179.447 85.027 179.857 84.915 180.184 84.691C180.511 84.4623 180.758 84.1333 180.926 83.704L182.186 84.033C181.925 84.7377 181.516 85.2767 180.961 85.65C180.406 86.0233 179.736 86.21 178.952 86.21ZM186.686 86.21C185.944 86.21 185.295 86.0467 184.74 85.72C184.189 85.3887 183.76 84.929 183.452 84.341C183.144 83.7483 182.99 83.0577 182.99 82.269C182.99 81.443 183.141 80.729 183.445 80.127C183.748 79.5203 184.17 79.0537 184.712 78.727C185.258 78.3957 185.897 78.23 186.63 78.23C187.39 78.23 188.037 78.405 188.569 78.755C189.105 79.105 189.507 79.6043 189.773 80.253C190.043 80.9017 190.16 81.674 190.123 82.57H188.863V82.122C188.849 81.1933 188.66 80.5003 188.296 80.043C187.932 79.581 187.39 79.35 186.672 79.35C185.902 79.35 185.316 79.5973 184.915 80.092C184.513 80.5867 184.313 81.296 184.313 82.22C184.313 83.1113 184.513 83.802 184.915 84.292C185.316 84.782 185.888 85.027 186.63 85.027C187.129 85.027 187.563 84.9127 187.932 84.684C188.3 84.4553 188.59 84.1263 188.8 83.697L189.997 84.11C189.703 84.7773 189.259 85.2953 188.667 85.664C188.079 86.028 187.418 86.21 186.686 86.21ZM183.893 82.57V81.569H189.479V82.57H183.893ZM194.537 86.203C193.637 86.203 192.897 86.007 192.318 85.615C191.744 85.2183 191.392 84.6653 191.261 83.956L192.535 83.753C192.638 84.1637 192.874 84.4903 193.242 84.733C193.611 84.971 194.068 85.09 194.614 85.09C195.132 85.09 195.538 84.9827 195.832 84.768C196.126 84.5533 196.273 84.2617 196.273 83.893C196.273 83.6783 196.224 83.5057 196.126 83.375C196.028 83.2397 195.825 83.1137 195.517 82.997C195.214 82.8803 194.754 82.7403 194.138 82.577C193.471 82.3997 192.946 82.2153 192.563 82.024C192.181 81.8327 191.908 81.611 191.744 81.359C191.581 81.107 191.499 80.8013 191.499 80.442C191.499 79.9987 191.621 79.6113 191.863 79.28C192.106 78.944 192.444 78.685 192.878 78.503C193.317 78.321 193.826 78.23 194.404 78.23C194.978 78.23 195.492 78.321 195.944 78.503C196.397 78.685 196.761 78.944 197.036 79.28C197.316 79.6113 197.482 79.9987 197.533 80.442L196.259 80.673C196.199 80.267 196.003 79.9473 195.671 79.714C195.345 79.4807 194.922 79.357 194.404 79.343C193.914 79.3243 193.515 79.4107 193.207 79.602C192.904 79.7933 192.752 80.0523 192.752 80.379C192.752 80.561 192.808 80.7173 192.92 80.848C193.037 80.9787 193.249 81.1023 193.557 81.219C193.87 81.3357 194.323 81.4687 194.915 81.618C195.583 81.786 196.108 81.9703 196.49 82.171C196.878 82.367 197.153 82.6003 197.316 82.871C197.48 83.137 197.561 83.466 197.561 83.858C197.561 84.586 197.293 85.16 196.756 85.58C196.22 85.9953 195.48 86.203 194.537 86.203ZM201.961 86.203C201.06 86.203 200.321 86.007 199.742 85.615C199.168 85.2183 198.816 84.6653 198.685 83.956L199.959 83.753C200.062 84.1637 200.297 84.4903 200.666 84.733C201.035 84.971 201.492 85.09 202.038 85.09C202.556 85.09 202.962 84.9827 203.256 84.768C203.55 84.5533 203.697 84.2617 203.697 83.893C203.697 83.6783 203.648 83.5057 203.55 83.375C203.452 83.2397 203.249 83.1137 202.941 82.997C202.638 82.8803 202.178 82.7403 201.562 82.577C200.895 82.3997 200.37 82.2153 199.987 82.024C199.604 81.8327 199.331 81.611 199.168 81.359C199.005 81.107 198.923 80.8013 198.923 80.442C198.923 79.9987 199.044 79.6113 199.287 79.28C199.53 78.944 199.868 78.685 200.302 78.503C200.741 78.321 201.249 78.23 201.828 78.23C202.402 78.23 202.915 78.321 203.368 78.503C203.821 78.685 204.185 78.944 204.46 79.28C204.74 79.6113 204.906 79.9987 204.957 80.442L203.683 80.673C203.622 80.267 203.426 79.9473 203.095 79.714C202.768 79.4807 202.346 79.357 201.828 79.343C201.338 79.3243 200.939 79.4107 200.631 79.602C200.328 79.7933 200.176 80.0523 200.176 80.379C200.176 80.561 200.232 80.7173 200.344 80.848C200.461 80.9787 200.673 81.1023 200.981 81.219C201.294 81.3357 201.746 81.4687 202.339 81.618C203.006 81.786 203.531 81.9703 203.914 82.171C204.301 82.367 204.577 82.6003 204.74 82.871C204.903 83.137 204.985 83.466 204.985 83.858C204.985 84.586 204.717 85.16 204.18 85.58C203.643 85.9953 202.904 86.203 201.961 86.203Z" fill="#79716B"/>
<path d="M27.395 122V117.807L24 111.92H25.449L28.025 116.379L30.594 111.92H32.043L28.655 117.807V122H27.395ZM35.118 122.21C34.3666 122.21 33.718 122.04 33.172 121.699C32.6306 121.358 32.213 120.887 31.919 120.285C31.625 119.683 31.478 118.992 31.478 118.213C31.478 117.42 31.6273 116.724 31.926 116.127C32.2246 115.53 32.647 115.065 33.193 114.734C33.739 114.398 34.3806 114.23 35.118 114.23C35.874 114.23 36.525 114.4 37.071 114.741C37.617 115.077 38.0346 115.546 38.324 116.148C38.618 116.745 38.765 117.434 38.765 118.213C38.765 119.002 38.618 119.697 38.324 120.299C38.03 120.896 37.61 121.365 37.064 121.706C36.518 122.042 35.8693 122.21 35.118 122.21ZM35.118 121.027C35.902 121.027 36.4853 120.766 36.868 120.243C37.2506 119.72 37.442 119.044 37.442 118.213C37.442 117.359 37.2483 116.68 36.861 116.176C36.4736 115.667 35.8926 115.413 35.118 115.413C34.5906 115.413 34.1566 115.532 33.816 115.77C33.4753 116.008 33.221 116.337 33.053 116.757C32.885 117.177 32.801 117.662 32.801 118.213C32.801 119.062 32.997 119.744 33.389 120.257C33.781 120.77 34.3573 121.027 35.118 121.027ZM43.1762 122.196C42.6908 122.196 42.2732 122.119 41.9232 121.965C41.5778 121.811 41.2908 121.606 41.0622 121.349C40.8335 121.092 40.6538 120.808 40.5232 120.495C40.3925 120.182 40.2992 119.863 40.2432 119.536C40.1918 119.209 40.1662 118.904 40.1662 118.619V114.44H41.4262V118.227C41.4262 118.582 41.4588 118.925 41.5242 119.256C41.5895 119.587 41.6992 119.886 41.8532 120.152C42.0118 120.418 42.2218 120.628 42.4832 120.782C42.7492 120.936 43.0805 121.013 43.4772 121.013C43.7898 121.013 44.0745 120.959 44.3312 120.852C44.5878 120.745 44.8072 120.586 44.9892 120.376C45.1712 120.161 45.3112 119.891 45.4092 119.564C45.5072 119.237 45.5562 118.857 45.5562 118.423L46.3752 118.675C46.3752 119.403 46.2422 120.031 45.9762 120.558C45.7148 121.085 45.3438 121.491 44.8632 121.776C44.3872 122.056 43.8248 122.196 43.1762 122.196ZM45.6962 122V119.977H45.5562V114.44H46.8092V122H45.6962ZM48.8391 115.07L48.9161 114.489C49.1121 114.503 49.2591 114.466 49.3571 114.377C49.4551 114.288 49.5181 114.167 49.5461 114.013C49.5741 113.859 49.5787 113.689 49.5601 113.502H48.8391V111.92H50.2111V113.712C50.2111 114.202 50.0897 114.571 49.8471 114.818C49.6091 115.065 49.2731 115.149 48.8391 115.07ZM52.1597 122V114.44H53.2727V116.267L53.0907 116.029C53.1794 115.796 53.2937 115.581 53.4337 115.385C53.5784 115.189 53.7394 115.028 53.9167 114.902C54.1127 114.743 54.3344 114.622 54.5817 114.538C54.829 114.454 55.081 114.405 55.3377 114.391C55.5944 114.372 55.8347 114.389 56.0587 114.44V115.609C55.7974 115.539 55.5104 115.52 55.1977 115.553C54.885 115.586 54.5957 115.7 54.3297 115.896C54.087 116.069 53.898 116.279 53.7627 116.526C53.632 116.773 53.541 117.042 53.4897 117.331C53.4384 117.616 53.4127 117.907 53.4127 118.206V122H52.1597ZM60.5216 122.21C59.7796 122.21 59.131 122.047 58.5756 121.72C58.025 121.389 57.5956 120.929 57.2876 120.341C56.9796 119.748 56.8256 119.058 56.8256 118.269C56.8256 117.443 56.9773 116.729 57.2806 116.127C57.584 115.52 58.0063 115.054 58.5476 114.727C59.0936 114.396 59.733 114.23 60.4656 114.23C61.2263 114.23 61.8726 114.405 62.4046 114.755C62.9413 115.105 63.3426 115.604 63.6086 116.253C63.8793 116.902 63.996 117.674 63.9586 118.57H62.6986V118.122C62.6846 117.193 62.4956 116.5 62.1316 116.043C61.7676 115.581 61.2263 115.35 60.5076 115.35C59.7376 115.35 59.152 115.597 58.7506 116.092C58.3493 116.587 58.1486 117.296 58.1486 118.22C58.1486 119.111 58.3493 119.802 58.7506 120.292C59.152 120.782 59.7236 121.027 60.4656 121.027C60.965 121.027 61.399 120.913 61.7676 120.684C62.1363 120.455 62.4256 120.126 62.6356 119.697L63.8326 120.11C63.5386 120.777 63.0953 121.295 62.5026 121.664C61.9146 122.028 61.2543 122.21 60.5216 122.21ZM57.7286 118.57V117.569H63.3146V118.57H57.7286ZM68.4598 113.103V111.815H69.7058V113.103H68.4598ZM68.4598 122V114.44H69.7058V122H68.4598ZM77.1892 122V118.213C77.1892 117.854 77.1565 117.508 77.0912 117.177C77.0305 116.846 76.9208 116.549 76.7622 116.288C76.6082 116.022 76.3982 115.812 76.1322 115.658C75.8708 115.504 75.5395 115.427 75.1382 115.427C74.8255 115.427 74.5408 115.481 74.2842 115.588C74.0322 115.691 73.8152 115.849 73.6332 116.064C73.4512 116.279 73.3088 116.549 73.2062 116.876C73.1082 117.198 73.0592 117.578 73.0592 118.017L72.2402 117.765C72.2402 117.032 72.3708 116.405 72.6322 115.882C72.8982 115.355 73.2692 114.951 73.7452 114.671C74.2258 114.386 74.7905 114.244 75.4392 114.244C75.9292 114.244 76.3468 114.321 76.6922 114.475C77.0375 114.629 77.3245 114.834 77.5532 115.091C77.7818 115.343 77.9615 115.628 78.0922 115.945C78.2228 116.258 78.3138 116.577 78.3652 116.904C78.4212 117.226 78.4492 117.532 78.4492 117.821V122H77.1892ZM71.7992 122V114.44H72.9192V116.463H73.0592V122H71.7992ZM80.9691 122V120.712H82.2151V122H80.9691ZM80.9691 119.48V111.92H82.2151V119.48H80.9691Z" fill="#79716B"/>
<path d="M8 1C9.72109 5.74985 11.4709 7.5223 16 9C11.3545 10.859 9.62364 12.6278 8 17C6.68037 12.638 4.84044 10.9184 0 9C4.78347 7.45109 6.59166 5.75309 8 1Z" fill="#292524"/>
<path d="M8 22L8 50" stroke="black" stroke-linecap="round" stroke-dasharray="4 4"/>
<path d="M5.61722 60.5571C6.67092 59.5153 7.41706 58.2105 8.04031 56.4875C8.76211 58.2176 9.54858 59.5333 10.593 60.5802C11.6479 61.6375 12.938 62.3928 14.6187 63.0415C12.8816 63.8223 11.5688 64.6443 10.5125 65.7047C9.48481 66.7364 8.72349 67.9701 8.03943 69.5531C7.44464 67.9792 6.71179 66.7553 5.67168 65.7279C4.5972 64.6666 3.22112 63.8415 1.4023 63.0422C3.18682 62.3731 4.54535 61.6169 5.61722 60.5571Z" stroke="#79716B"/>
<path d="M8 76L8 104" stroke="#79716B" stroke-linecap="round" stroke-dasharray="4 4"/>
<path d="M5.61722 114.557C6.67092 113.515 7.41706 112.21 8.04031 110.487C8.76211 112.218 9.54858 113.533 10.593 114.58C11.6479 115.637 12.938 116.393 14.6187 117.041C12.8816 117.822 11.5688 118.644 10.5125 119.705C9.48481 120.736 8.72349 121.97 8.03943 123.553C7.44464 121.979 6.71179 120.755 5.67168 119.728C4.5972 118.667 3.22112 117.841 1.4023 117.042C3.18682 116.373 4.54535 115.617 5.61722 114.557Z" stroke="#79716B"/>
</svg>
