<svg width="57" height="56" viewBox="0 0 57 56" fill="none" xmlns="http://www.w3.org/2000/svg">
<rect x="4.5" y="4" width="48" height="48" rx="24" fill="#57534E"/>
<g clip-path="url(#clip0_293_12322)">
<path d="M26.05 27.5C25.4533 27.5 24.881 27.2629 24.459 26.841C24.0371 26.419 23.8 25.8467 23.8 25.25C23.8 24.6533 24.0371 24.081 24.459 23.659C24.881 23.2371 25.4533 23 26.05 23C26.6467 23 27.219 23.2371 27.641 23.659C28.0629 24.081 28.3 24.6533 28.3 25.25C28.3 25.8467 28.0629 26.419 27.641 26.841C27.219 27.2629 26.6467 27.5 26.05 27.5ZM26.5 35.748V32.4C26.5 31.912 26.644 31.463 26.904 31.062C26.0127 30.9352 25.1047 30.9957 24.2381 31.2397C23.3714 31.4837 22.5652 31.9058 21.871 32.479C22.9641 34.0966 24.6101 35.2594 26.5 35.749V35.748ZM20.953 30.66C22.4135 29.5792 24.1831 28.9971 26 29C27.043 29 28.043 29.188 28.967 29.532C29.845 29.189 30.892 29 32 29C33.66 29 35.185 29.424 36.206 30.156C36.5435 28.9459 36.5913 27.6733 36.3455 26.4412C36.0997 25.2092 35.5671 24.0524 34.791 23.0644C34.0149 22.0765 33.017 21.2853 31.8782 20.7548C30.7394 20.2243 29.4916 19.9695 28.236 20.011C26.9803 20.0525 25.7521 20.3891 24.6508 20.9936C23.5494 21.5981 22.606 22.4535 21.8968 23.4905C21.1875 24.5275 20.7325 25.7169 20.5686 26.9625C20.4046 28.2081 20.5363 29.4748 20.953 30.66ZM35.379 32.086C34.986 31.553 33.671 31 32 31C29.994 31 28.5 31.797 28.5 32.4V36C29.8878 36.0008 31.252 35.6403 32.4583 34.954C33.6646 34.2678 34.6715 33.2794 35.38 32.086H35.379ZM28.5 38C22.977 38 18.5 33.523 18.5 28C18.5 22.477 22.977 18 28.5 18C34.023 18 38.5 22.477 38.5 28C38.5 33.523 34.023 38 28.5 38ZM32 28.5C31.4696 28.5 30.9609 28.2893 30.5858 27.9142C30.2107 27.5391 30 27.0304 30 26.5C30 25.9696 30.2107 25.4609 30.5858 25.0858C30.9609 24.7107 31.4696 24.5 32 24.5C32.5304 24.5 33.0391 24.7107 33.4142 25.0858C33.7893 25.4609 34 25.9696 34 26.5C34 27.0304 33.7893 27.5391 33.4142 27.9142C33.0391 28.2893 32.5304 28.5 32 28.5Z" fill="#FFE6C3"/>
</g>
<rect x="4.5" y="4" width="48" height="48" rx="24" stroke="#292524" stroke-width="8"/>
<defs>
<clipPath id="clip0_293_12322">
<rect width="24" height="24" fill="white" transform="translate(16.5 16)"/>
</clipPath>
</defs>
</svg>
