<svg width="111" height="30" viewBox="0 0 111 30" fill="none" xmlns="http://www.w3.org/2000/svg">
<path d="M20.2605 23.4672C22.5002 21.219 23.7557 18.1738 23.7514 15.0005C23.749 14.8046 23.6696 14.6176 23.5302 14.4799C23.3908 14.3422 23.2029 14.2651 23.007 14.2651C22.8111 14.2651 22.6231 14.3422 22.4838 14.4799C22.3444 14.6176 22.265 14.8046 22.2626 15.0005C22.2657 17.7814 21.1649 20.45 19.2019 22.4199C18.249 23.3983 17.1098 24.1758 15.8514 24.7068C14.5932 25.2377 13.2413 25.5112 11.8756 25.5112C10.5099 25.5112 9.15796 25.2377 7.89967 24.7068C6.64137 24.1758 5.50215 23.3983 4.54923 22.4199C2.58891 20.4481 1.48859 17.7806 1.48859 15.0001C1.48859 12.2195 2.58891 9.55197 4.54923 7.58007C5.4966 6.60927 6.62727 5.83619 7.87567 5.30565C9.12407 4.77513 10.4654 4.49768 11.8218 4.48943C12.1114 4.4985 12.386 4.62037 12.5871 4.82904C12.7882 5.0377 12.8997 5.31666 12.898 5.60642C12.8964 5.89618 12.7816 6.17382 12.5781 6.38014C12.3746 6.58645 12.0986 6.70511 11.8089 6.71081C11.782 6.71086 11.7552 6.71235 11.7286 6.71526C9.66492 6.78172 7.70683 7.6434 6.26374 9.12012C4.73973 10.6543 3.8844 12.729 3.8844 14.8914C3.8844 17.0539 4.73973 19.1285 6.26374 20.6627C7.00827 21.4254 7.89781 22.0315 8.88003 22.4452C9.86225 22.859 10.9174 23.0721 11.9831 23.0721C13.0489 23.0721 14.104 22.859 15.0863 22.4452C16.0684 22.0315 16.958 21.4254 17.7025 20.6627C19.2289 19.1302 20.0845 17.0545 20.0815 14.8914C20.0847 14.5508 20.0202 14.2127 19.8921 13.897C19.7638 13.5814 19.5743 13.2942 19.3345 13.0522C19.0946 12.8102 18.8092 12.6181 18.4947 12.4869C18.1803 12.3558 17.843 12.2883 17.5022 12.2883C17.1614 12.2883 16.8241 12.3558 16.5096 12.4869C16.1951 12.6181 15.9098 12.8102 15.6699 13.0522C15.4301 13.2942 15.2406 13.5814 15.1123 13.897C14.9841 14.2127 14.9197 14.5508 14.9229 14.8914C14.9229 14.9132 14.9243 14.9336 14.926 14.9544C14.9243 14.9753 14.9229 14.9961 14.9229 15.0174C14.9278 15.6114 14.756 16.1935 14.4295 16.6898C14.103 17.186 13.6365 17.574 13.0891 17.8048C12.5417 18.0354 11.938 18.0983 11.3549 17.9854C10.7717 17.8725 10.2352 17.5889 9.81343 17.1706C9.39167 16.7523 9.10368 16.2181 8.986 15.6359C8.86832 15.0536 8.92626 14.4495 9.15244 13.9003C9.37864 13.351 9.76289 12.8813 10.2565 12.5507C10.75 12.2202 11.3307 12.0437 11.9247 12.0437C12.0232 12.0449 12.121 12.0265 12.2123 11.9896C12.3037 11.9527 12.3868 11.8981 12.4569 11.8289C12.5269 11.7596 12.5827 11.6772 12.6206 11.5863C12.6586 11.4954 12.6781 11.3978 12.6781 11.2993C12.6781 11.2008 12.6586 11.1032 12.6206 11.0123C12.5827 10.9214 12.5269 10.839 12.4569 10.7697C12.3868 10.7005 12.3037 10.6458 12.2123 10.609C12.121 10.5721 12.0232 10.5537 11.9247 10.5549C11.0431 10.5598 10.1828 10.8257 9.45215 11.319C8.72153 11.8123 8.1534 12.511 7.81942 13.3269C7.48546 14.1427 7.40062 15.0393 7.5756 15.9033C7.75059 16.7674 8.17757 17.5601 8.80267 18.1818C9.42776 18.8034 10.223 19.226 11.088 19.3962C11.9529 19.5663 12.849 19.4765 13.663 19.138C14.4769 18.7995 15.1725 18.2276 15.6618 17.4942C16.151 16.7608 16.4121 15.899 16.4121 15.0174C16.4121 14.9957 16.4107 14.9753 16.4089 14.9544C16.4107 14.9336 16.4121 14.9127 16.4121 14.8914C16.4092 14.7464 16.4352 14.6023 16.4888 14.4673C16.5422 14.3325 16.6222 14.2097 16.7236 14.1061C16.8252 14.0025 16.9464 13.9202 17.0802 13.864C17.2139 13.8078 17.3576 13.7789 17.5026 13.7789C17.6476 13.7789 17.7914 13.8078 17.9251 13.864C18.0588 13.9202 18.18 14.0025 18.2816 14.1061C18.3831 14.2097 18.463 14.3325 18.5165 14.4673C18.57 14.6023 18.5961 14.7464 18.5932 14.8914C18.5951 16.6623 17.8941 18.3615 16.6441 19.6159C16.0381 20.2385 15.3134 20.7333 14.5129 21.0713C13.7124 21.4092 12.8523 21.5833 11.9833 21.5833C11.1145 21.5833 10.2544 21.4092 9.45391 21.0713C8.65341 20.7333 7.92874 20.2385 7.32267 19.6159C6.07434 18.3604 5.37365 16.6619 5.37365 14.8914C5.37365 13.121 6.07434 11.4225 7.32267 10.167C7.92921 9.54512 8.65391 9.05075 9.4542 8.7129C10.2545 8.37503 11.1142 8.20052 11.9829 8.19959C12.0497 8.1994 12.1162 8.1902 12.1806 8.17221C12.8144 8.07502 13.3898 7.74727 13.7967 7.25185C14.2036 6.75642 14.4133 6.1282 14.3855 5.48771C14.3577 4.8472 14.0942 4.23952 13.6459 3.78125C13.1976 3.32296 12.5959 3.04634 11.9562 3.00445C11.9295 3.00154 11.9025 3.00006 11.8756 3C11.8606 3 11.8457 3 11.8307 3C11.8233 3 11.8162 3 11.809 3C11.8018 3 11.7944 3.00087 11.7873 3.00109C10.2397 3.01326 8.70989 3.33164 7.28597 3.93787C5.86205 4.5441 4.57223 5.4262 3.49084 6.53331C1.25491 8.78389 0 11.8275 0 15.0001C0 18.1725 1.25491 21.2161 3.49084 23.4667C4.58222 24.585 5.88629 25.4739 7.32629 26.0806C8.76631 26.6874 10.3132 27 11.8758 27C13.4384 27 14.9852 26.6874 16.4253 26.0806C17.8653 25.4739 19.1693 24.585 20.2607 23.4667L20.2605 23.4672Z" fill="#FFE6C3"/>
<path d="M40.2235 23.24C44.9755 23.24 47.5435 20.744 47.5435 16.76V16.544H43.7035V16.664C43.7035 18.968 42.7435 19.76 40.1995 19.76C37.4875 19.76 36.3595 18.776 36.3595 14.96C36.3595 11.144 37.4875 10.16 40.1995 10.16C42.7435 10.16 43.7035 10.952 43.7035 13.256V13.376H47.5435V13.16C47.5435 9.176 44.9755 6.68 40.2235 6.68C35.3995 6.68 32.5195 9.944 32.5195 14.96C32.5195 19.976 35.3995 23.24 40.2235 23.24ZM55.0418 23.24C58.4978 23.24 60.7058 21.728 60.7058 19.16V18.92H57.1538V19.064C57.1538 19.808 56.5298 20.12 55.0898 20.12C53.1218 20.12 52.4498 19.448 52.3778 17.768H60.6578C60.7298 17.36 60.8258 16.664 60.8258 15.992C60.8258 12.848 58.6898 10.688 55.0658 10.688C51.2978 10.688 48.9938 13.136 48.9938 17C48.9938 20.816 50.8898 23.24 55.0418 23.24ZM54.9458 13.64C56.6258 13.64 57.4418 14.336 57.3698 15.584H52.4018C52.5458 14.312 53.2178 13.64 54.9458 13.64ZM66.1268 23V16.16C66.1268 14.336 66.8708 13.784 68.5988 13.784C70.4228 13.784 70.9748 14.384 70.9748 16.064V23H74.5748V15.344C74.5748 12.776 73.2308 10.688 70.0868 10.688C67.9748 10.688 66.6788 11.672 66.0308 13.04H65.8868V10.928H62.5508V23H66.1268ZM82.1578 23.048C82.9978 23.048 83.9338 22.928 84.5098 22.808V19.808H83.0218C81.4618 19.808 81.1018 19.688 81.1018 18.632V13.904H84.5098V10.928H81.1018V8.12H78.2698L77.5978 10.928H75.5818V13.904H77.5018V19.04C77.5018 21.896 79.0138 23.048 82.1578 23.048ZM89.7752 23V15.44C89.7752 14.12 90.3032 13.736 91.4072 13.736C92.5352 13.736 92.9432 14.144 92.9432 15.44V16.088H96.5192V14.984C96.5192 12.56 95.5832 10.688 93.0632 10.688C91.3592 10.688 90.2792 11.648 89.6792 12.872H89.5352V10.928H86.1992V23H89.7752ZM103.701 23.24C107.565 23.24 109.821 20.792 109.821 16.976C109.821 13.136 107.565 10.688 103.701 10.688C99.8134 10.688 97.5094 13.136 97.5094 16.976C97.5094 20.792 99.8134 23.24 103.701 23.24ZM103.701 20.072C101.733 20.072 101.061 19.304 101.061 16.976C101.061 14.624 101.733 13.856 103.701 13.856C105.645 13.856 106.317 14.624 106.317 16.976C106.317 19.304 105.645 20.072 103.701 20.072Z" fill="#FFE6C3"/>
</svg>
