<svg width="24" height="24" viewBox="0 0 24 24" fill="none" xmlns="http://www.w3.org/2000/svg">
<path d="M20.2605 20.4672C22.5002 18.219 23.7557 15.1738 23.7514 12.0005C23.749 11.8046 23.6696 11.6176 23.5302 11.4799C23.3908 11.3422 23.2029 11.2651 23.007 11.2651C22.8111 11.2651 22.6231 11.3422 22.4838 11.4799C22.3444 11.6176 22.265 11.8046 22.2626 12.0005C22.2657 14.7814 21.1649 17.45 19.2019 19.4199C18.249 20.3983 17.1098 21.1758 15.8514 21.7068C14.5932 22.2377 13.2413 22.5112 11.8756 22.5112C10.5099 22.5112 9.15796 22.2377 7.89967 21.7068C6.64137 21.1758 5.50215 20.3983 4.54923 19.4199C2.58891 17.4481 1.48859 14.7806 1.48859 12.0001C1.48859 9.21949 2.58891 6.55197 4.54923 4.58007C5.4966 3.60927 6.62727 2.83619 7.87567 2.30565C9.12407 1.77513 10.4654 1.49768 11.8218 1.48943C12.1114 1.4985 12.386 1.62037 12.5871 1.82904C12.7882 2.0377 12.8997 2.31666 12.898 2.60642C12.8964 2.89618 12.7816 3.17382 12.5781 3.38014C12.3746 3.58645 12.0986 3.70511 11.8089 3.71081C11.782 3.71086 11.7552 3.71235 11.7286 3.71526C9.66492 3.78172 7.70683 4.6434 6.26374 6.12012C4.73973 7.65428 3.8844 9.72897 3.8844 11.8914C3.8844 14.0539 4.73973 16.1285 6.26374 17.6627C7.00827 18.4254 7.89781 19.0315 8.88003 19.4452C9.86225 19.859 10.9174 20.0721 11.9831 20.0721C13.0489 20.0721 14.104 19.859 15.0863 19.4452C16.0684 19.0315 16.958 18.4254 17.7025 17.6627C19.2289 16.1302 20.0845 14.0545 20.0815 11.8914C20.0847 11.5508 20.0202 11.2127 19.8921 10.897C19.7638 10.5814 19.5743 10.2942 19.3345 10.0522C19.0946 9.81018 18.8092 9.61805 18.4947 9.48695C18.1803 9.35583 17.843 9.28833 17.5022 9.28833C17.1614 9.28833 16.8241 9.35583 16.5096 9.48695C16.1951 9.61805 15.9098 9.81018 15.6699 10.0522C15.4301 10.2942 15.2406 10.5814 15.1123 10.897C14.9841 11.2127 14.9197 11.5508 14.9229 11.8914C14.9229 11.9132 14.9243 11.9336 14.926 11.9544C14.9243 11.9753 14.9229 11.9961 14.9229 12.0174C14.9278 12.6114 14.756 13.1935 14.4295 13.6898C14.103 14.186 13.6365 14.574 13.0891 14.8048C12.5417 15.0354 11.938 15.0983 11.3549 14.9854C10.7717 14.8725 10.2352 14.5889 9.81343 14.1706C9.39167 13.7523 9.10368 13.2181 8.986 12.6359C8.86832 12.0536 8.92626 11.4495 9.15244 10.9003C9.37864 10.351 9.76289 9.88125 10.2565 9.55071C10.75 9.22017 11.3307 9.0437 11.9247 9.04368C12.0232 9.04488 12.121 9.0265 12.2123 8.98963C12.3037 8.95275 12.3868 8.89811 12.4569 8.82887C12.5269 8.75963 12.5827 8.67717 12.6206 8.58625C12.6586 8.49535 12.6781 8.39781 12.6781 8.29929C12.6781 8.20078 12.6586 8.10324 12.6206 8.01234C12.5827 7.92142 12.5269 7.83896 12.4569 7.76972C12.3868 7.70048 12.3037 7.64584 12.2123 7.60896C12.121 7.57209 12.0232 7.55371 11.9247 7.55491C11.0431 7.55979 10.1828 7.82569 9.45215 8.31901C8.72153 8.81234 8.1534 9.51102 7.81942 10.3269C7.48546 11.1427 7.40062 12.0393 7.5756 12.9033C7.75059 13.7674 8.17757 14.5601 8.80267 15.1818C9.42776 15.8034 10.223 16.226 11.088 16.3962C11.9529 16.5663 12.849 16.4765 13.663 16.138C14.4769 15.7995 15.1725 15.2276 15.6618 14.4942C16.151 13.7608 16.4121 12.899 16.4121 12.0174C16.4121 11.9957 16.4107 11.9753 16.4089 11.9544C16.4107 11.9336 16.4121 11.9127 16.4121 11.8914C16.4092 11.7464 16.4352 11.6023 16.4888 11.4673C16.5422 11.3325 16.6222 11.2097 16.7236 11.1061C16.8252 11.0025 16.9464 10.9202 17.0802 10.864C17.2139 10.8078 17.3576 10.7789 17.5026 10.7789C17.6476 10.7789 17.7914 10.8078 17.9251 10.864C18.0588 10.9202 18.18 11.0025 18.2816 11.1061C18.3831 11.2097 18.463 11.3325 18.5165 11.4673C18.57 11.6023 18.5961 11.7464 18.5932 11.8914C18.5951 13.6623 17.8941 15.3615 16.6441 16.6159C16.0381 17.2385 15.3134 17.7333 14.5129 18.0713C13.7124 18.4092 12.8523 18.5833 11.9833 18.5833C11.1145 18.5833 10.2544 18.4092 9.45391 18.0713C8.65341 17.7333 7.92874 17.2385 7.32267 16.6159C6.07434 15.3604 5.37365 13.6619 5.37365 11.8914C5.37365 10.121 6.07434 8.42246 7.32267 7.16699C7.92921 6.54512 8.65391 6.05075 9.4542 5.7129C10.2545 5.37503 11.1142 5.20052 11.9829 5.19959C12.0497 5.1994 12.1162 5.1902 12.1806 5.17221C12.8144 5.07502 13.3898 4.74727 13.7967 4.25185C14.2036 3.75642 14.4133 3.1282 14.3855 2.48771C14.3577 1.8472 14.0942 1.23952 13.6459 0.781245C13.1976 0.322962 12.5959 0.0463428 11.9562 0.00445388C11.9295 0.00154314 11.9025 5.63899e-05 11.8756 0C11.8606 0 11.8457 0 11.8307 0C11.8233 0 11.8162 0 11.809 0C11.8018 0 11.7944 0.000868444 11.7873 0.0010857C10.2397 0.0132562 8.70989 0.331637 7.28597 0.937872C5.86205 1.5441 4.57223 2.4262 3.49084 3.53331C1.25491 5.78389 0 8.82754 0 12.0001C0 15.1725 1.25491 18.2161 3.49084 20.4667C4.58222 21.585 5.88629 22.4739 7.32629 23.0806C8.76631 23.6874 10.3132 24 11.8758 24C13.4384 24 14.9852 23.6874 16.4253 23.0806C17.8653 22.4739 19.1693 21.585 20.2607 20.4667L20.2605 20.4672Z" fill="#141115"/>
</svg>
