<svg xmlns="http://www.w3.org/2000/svg" width="65" height="64" fill="none" viewBox="0 0 65 64"><rect width="65" height="64" fill="#FFE6C3" rx="32"/><g clip-path="url(#clip0_293_12357)"><path fill="#292524" d="M42.5 29H44C44.3978 29 44.7794 29.158 45.0607 29.4393C45.342 29.7206 45.5 30.1022 45.5 30.5V45.5C45.5 45.8978 45.342 46.2794 45.0607 46.5607C44.7794 46.842 44.3978 47 44 47H20C19.6022 47 19.2206 46.842 18.9393 46.5607C18.658 46.2794 18.5 45.8978 18.5 45.5V30.5C18.5 30.1022 18.658 29.7206 18.9393 29.4393C19.2206 29.158 19.6022 29 20 29H21.5V27.5C21.5 26.1211 21.7716 24.7557 22.2993 23.4818C22.8269 22.2079 23.6004 21.0504 24.5754 20.0754C25.5504 19.1004 26.7079 18.3269 27.9818 17.7993C29.2557 17.2716 30.6211 17 32 17C33.3789 17 34.7443 17.2716 36.0182 17.7993C37.2921 18.3269 38.4496 19.1004 39.4246 20.0754C40.3996 21.0504 41.1731 22.2079 41.7007 23.4818C42.2284 24.7557 42.5 26.1211 42.5 27.5V29ZM39.5 29V27.5C39.5 25.5109 38.7098 23.6032 37.3033 22.1967C35.8968 20.7902 33.9891 20 32 20C30.0109 20 28.1032 20.7902 26.6967 22.1967C25.2902 23.6032 24.5 25.5109 24.5 27.5V29H39.5ZM30.5 35V41H33.5V35H30.5Z"/></g><defs><clipPath id="clip0_293_12357"><rect width="36" height="36" fill="#fff" transform="translate(14 14)"/></clipPath></defs></svg>