<svg width="65" height="64" viewBox="0 0 65 64" fill="none" xmlns="http://www.w3.org/2000/svg">
<rect width="65" height="64" rx="32" fill="#FFE6C3"/>
<g clip-path="url(#clip0_293_12381)">
<path d="M45.5 45.5H33.5V23C33.5 21.8065 33.9741 20.6619 34.818 19.818C35.6619 18.9741 36.8065 18.5 38 18.5H45.5C45.8978 18.5 46.2794 18.658 46.5607 18.9393C46.842 19.2206 47 19.6022 47 20V44C47 44.3978 46.842 44.7794 46.5607 45.0607C46.2794 45.342 45.8978 45.5 45.5 45.5ZM30.5 45.5H18.5C18.1022 45.5 17.7206 45.342 17.4393 45.0607C17.158 44.7794 17 44.3978 17 44V20C17 19.6022 17.158 19.2206 17.4393 18.9393C17.7206 18.658 18.1022 18.5 18.5 18.5H26C27.1935 18.5 28.3381 18.9741 29.182 19.818C30.0259 20.6619 30.5 21.8065 30.5 23V45.5ZM30.5 45.5H33.5V48.5H30.5V45.5Z" fill="#292524"/>
</g>
<defs>
<clipPath id="clip0_293_12381">
<rect width="36" height="36" fill="white" transform="translate(14 14)"/>
</clipPath>
</defs>
</svg>
