<svg width="36" height="37" viewBox="0 0 36 37" fill="none" xmlns="http://www.w3.org/2000/svg">
<rect y="0.733276" width="35.9111" height="35.9111" rx="6" fill="white"/>
<g clip-path="url(#clip0_285_11730)">
<path d="M8.93931 13.5047C13.6674 8.87554 21.3331 8.87554 26.0612 13.5047L26.6303 14.0619C26.8667 14.2933 26.8667 14.6686 26.6303 14.9L24.6837 16.8059C24.5655 16.9216 24.3739 16.9216 24.2557 16.8059L23.4726 16.0392C20.1742 12.8098 14.8264 12.8098 11.5279 16.0392L10.6893 16.8603C10.5711 16.976 10.3795 16.976 10.2613 16.8603L8.31475 14.9544C8.07834 14.723 8.07834 14.3477 8.31475 14.1162L8.93931 13.5047ZM30.0869 17.4462L31.8193 19.1424C32.0557 19.3738 32.0557 19.7491 31.8193 19.9806L24.0076 27.629C23.7712 27.8604 23.388 27.8604 23.1516 27.629L23.1516 27.629L17.6073 22.2007C17.5482 22.1428 17.4524 22.1428 17.3933 22.2007C17.3933 22.2007 17.3933 22.2007 17.3933 22.2007L11.8492 27.629C11.6128 27.8604 11.2295 27.8604 10.9931 27.629C10.9931 27.629 10.9931 27.629 10.9931 27.629L3.18121 19.9805C2.94481 19.749 2.94481 19.3738 3.18121 19.1423L4.91364 17.4461C5.15005 17.2146 5.53333 17.2146 5.76974 17.4461L11.3141 22.8744C11.3732 22.9323 11.469 22.9323 11.5281 22.8744C11.5281 22.8744 11.5281 22.8744 11.5281 22.8744L17.0721 17.4461C17.3085 17.2146 17.6918 17.2146 17.9282 17.4461C17.9282 17.4461 17.9282 17.4461 17.9282 17.4461L23.4725 22.8744C23.5316 22.9323 23.6275 22.9323 23.6866 22.8744L29.2308 17.4462C29.4672 17.2147 29.8505 17.2147 30.0869 17.4462Z" fill="#3B99FC"/>
</g>
<defs>
<clipPath id="clip0_285_11730">
<rect width="29" height="17.8833" fill="white" transform="translate(3 10)"/>
</clipPath>
</defs>
</svg>
